<?xml version="1.0" encoding="UTF-8"?>
<svg version="1.1" xmlns="http://www.w3.org/2000/svg" width="368" height="368">
<path d="M0 0 C121.44 0 242.88 0 368 0 C368 121.44 368 242.88 368 368 C246.56 368 125.12 368 0 368 C0 246.56 0 125.12 0 0 Z " fill="#EA424C" transform="translate(0,0)"/>
<path d="M0 0 C19.92320304 17.91803714 34.62137999 44.94777027 36.30249023 71.95874023 C36.89972153 85.83681536 37.20644938 99.523228 33.30249023 112.95874023 C33.0044751 114.00868164 33.0044751 114.00868164 32.70043945 115.07983398 C24.1308642 144.71066496 5.22984938 169.86591258 -21.89819336 185.00463867 C-31.64452867 190.17270901 -42.00282886 194.25301161 -52.69750977 196.95874023 C-53.38723877 197.13606689 -54.07696777 197.31339355 -54.78759766 197.49609375 C-62.30145244 199.23184287 -69.69940638 199.30489209 -77.38500977 199.27124023 C-78.38520645 199.26800751 -78.38520645 199.26800751 -79.40560913 199.26470947 C-89.16515656 199.21401661 -98.30484106 198.85636213 -107.69750977 195.95874023 C-108.69016846 195.6607251 -108.69016846 195.6607251 -109.70288086 195.35668945 C-125.37762929 190.56269423 -138.99472814 183.36497377 -151.69750977 172.95874023 C-152.54829102 172.27295898 -153.39907227 171.58717773 -154.27563477 170.88061523 C-175.56378224 152.80577304 -190.15520874 124.67852116 -192.49682617 96.91796875 C-193.41835974 83.32927242 -193.4370586 70.12000952 -189.69750977 56.95874023 C-189.43067383 55.83854492 -189.16383789 54.71834961 -188.88891602 53.56420898 C-184.03382303 34.33804075 -173.33420086 18.07968883 -159.69750977 3.95874023 C-158.95500977 3.15307617 -158.21250977 2.34741211 -157.44750977 1.51733398 C-115.41096089 -42.91468 -43.67165939 -38.34269737 0 0 Z " fill="#FEFEFE" transform="translate(261.697509765625,99.041259765625)"/>
<path d="M0 0 C7.87499741 6.74999778 7.87499741 6.74999778 10.57949829 9.45924377 C11.50444344 10.38212692 11.50444344 10.38212692 12.44807434 11.32365417 C13.0976561 11.97683121 13.74723785 12.63000824 14.41650391 13.30297852 C15.47400597 14.36026154 15.47400597 14.36026154 16.5528717 15.43890381 C18.86314938 17.74987333 21.16987156 20.0643571 23.4765625 22.37890625 C25.09103837 23.99524986 26.70573714 25.61137085 28.32064819 27.22727966 C32.55906281 31.46949951 36.79446739 35.71471209 41.02923584 39.96057129 C45.33539055 44.27695247 49.6443709 48.59051077 53.953125 52.90429688 C60.91164557 59.87159323 67.86843579 66.84061167 74.82298279 73.81187439 C75.43397324 74.42431 76.04496368 75.03674561 76.67446899 75.66773987 C77.24341007 76.23844774 77.81235115 76.80915562 78.39853287 77.39715767 C79.42984068 78.42935108 80.46325749 79.45944379 81.49926376 80.48692131 C86.41218621 85.36224737 86.41218621 85.36224737 87 88 C85.91969965 90.31973843 84.82398442 92.25116199 83.4375 94.375 C75.94892747 106.62961428 71.62104491 120.73480479 70 135 C67 135 67 135 64.9152832 133.25585938 C64.13499756 132.45986328 63.35471191 131.66386719 62.55078125 130.84375 C61.70322266 129.98652344 60.85566406 129.12929687 59.98242188 128.24609375 C59.10134766 127.33988281 58.22027344 126.43367188 57.3125 125.5 C56.41982422 124.59378906 55.52714844 123.68757813 54.60742188 122.75390625 C52.39810749 120.50914832 50.19607467 118.25770002 48 116 C43.33125463 119.89976721 38.90872191 123.95214644 34.62890625 128.2734375 C34.06171371 128.84204498 33.49452118 129.41065247 32.91014099 129.99649048 C31.12520087 131.78696236 29.34379744 133.58090484 27.5625 135.375 C26.34203061 136.60049323 25.12132947 137.82575572 23.90039062 139.05078125 C20.93091244 142.03119774 17.96459743 145.01472894 15 148 C16.32869254 150.94625928 17.77333685 153.02208297 20.05722237 155.30052471 C20.68821567 155.93488341 21.31920897 156.56924211 21.96932328 157.2228238 C22.66386829 157.91086101 23.3584133 158.59889821 24.07400513 159.30778503 C24.8107534 160.04553659 25.54750168 160.78328815 26.30657566 161.54339582 C28.78315611 164.02093094 31.26682315 166.49123855 33.75048828 168.96166992 C35.52459604 170.73357715 37.29825687 172.50593196 39.07150269 174.27870178 C42.89367106 178.09793389 46.71884998 181.91411048 50.54672623 185.72762108 C56.0816873 191.24190754 61.61064621 196.76218052 67.13805877 202.28403226 C76.10672641 211.24344434 85.07948615 220.19874605 94.05517578 229.15112305 C94.59235544 229.68690939 95.12953509 230.22269573 95.68299292 230.77471802 C96.22086397 231.31119354 96.75873502 231.84766906 97.31290519 232.40040141 C104.94483721 240.01255087 112.57579017 247.62567998 120.20556641 255.23999023 C120.74270016 255.77603314 121.27983392 256.31207605 121.83324446 256.86436268 C130.77565205 265.78877363 139.71604791 274.71519817 148.65540874 283.64266092 C154.17329882 289.15294488 159.69326141 294.66113827 165.21588634 300.16667686 C169.44059241 304.3784915 173.66289921 308.59270538 177.88432693 312.80780602 C179.62178201 314.5417741 181.36010879 316.27486918 183.09934235 318.00705338 C185.46182022 320.36016163 187.82127014 322.71626375 190.17996216 325.07316589 C190.87896861 325.76789527 191.57797507 326.46262464 192.29816353 327.17840642 C192.92394134 327.80494187 193.54971915 328.43147733 194.19445992 329.07699871 C194.74017305 329.62124798 195.28588618 330.16549724 195.84813607 330.72623891 C197 332 197 332 197 333 C131.99 333 66.98 333 0 333 C0 223.11 0 113.22 0 0 Z " fill="#E9424C" transform="translate(0,35)"/>
<path d="M0 0 C0.46012985 0.40171921 0.9202597 0.80343842 1.39433289 1.21733093 C4.47051925 3.88256935 7.50632365 6.4427261 10.89453125 8.70703125 C16.73163368 13.11895586 21.19570614 17.335672 22.81152344 24.69726562 C23.64181009 31.07278563 23.70463243 37.45801564 23.69842529 43.87713623 C23.7017259 52.46404468 25.197359 59.86180092 28 68 C28.2462915 68.77529053 28.49258301 69.55058105 28.74633789 70.34936523 C33.44298192 84.94781691 41.06036073 97.37531459 51 109 C51.47695312 109.60972656 51.95390625 110.21945312 52.4453125 110.84765625 C68.01314115 130.37416133 95.37127044 143.02551685 119.51997375 146.85092163 C122.31636483 147.0190172 124.70298138 146.63002094 127.45800781 146.1340332 C136.90750625 144.8190632 145.39272922 145.13967786 153.26461792 150.87167358 C164.06001729 159.52040615 173.4373123 169.89433343 182.83972168 179.99615479 C186.77293359 184.19082416 190.78592878 188.30771538 194.79101562 192.43359375 C200.59990541 198.44016807 206.37915089 204.47259994 212.09448242 210.56835938 C212.69726517 211.20839401 213.30004791 211.84842865 213.9210968 212.50785828 C218 216.88011634 218 216.88011634 218 218 C196.42585657 224.85697108 171.14644188 227.80374916 150 218 C132.31225147 207.86760723 117.62195932 192.33770294 103.328125 177.96875 C102.57977595 177.21755803 102.57977595 177.21755803 101.81630874 176.45119047 C88.81117762 163.38140364 76.15323007 149.99511312 63.59726286 136.49507236 C56.2935606 128.6484692 48.90406596 120.8905233 41.45068359 113.18603516 C40.9219286 112.63941497 40.39317361 112.09279477 39.84839574 111.52961034 C37.19391893 108.78635664 34.53799514 106.04450898 31.88135004 103.30335522 C10.02547832 80.74852694 -11.56772451 57.95810272 -33 35 C-31.59372922 32.07396629 -30.23827317 29.99243355 -27.92724609 27.70019531 C-27.30675385 27.07985413 -26.6862616 26.45951294 -26.04696655 25.82037354 C-25.37920197 25.16293152 -24.71143738 24.5054895 -24.0234375 23.828125 C-23.33819 23.1457074 -22.6529425 22.46328979 -21.94692993 21.76019287 C-19.76094155 19.58538402 -17.56809571 17.41763928 -15.375 15.25 C-13.89016745 13.7752001 -12.40578694 12.29994494 -10.921875 10.82421875 C-7.2864709 7.21084552 -3.64490176 3.60379147 0 0 Z " fill="#E51912" transform="translate(47,150)"/>
<path d="M0 0 C2.86468339 1.31014503 5.0203261 2.73562718 7.31893539 4.88289452 C7.95739419 5.47543569 8.59585298 6.06797686 9.25365901 6.67847383 C9.94626929 7.33052565 10.63887956 7.98257746 11.35247803 8.65438843 C12.0950187 9.34724178 12.83755938 10.04009513 13.60260129 10.75394404 C16.09657149 13.08501892 18.58325476 15.42369853 21.06933594 17.76318359 C21.94111544 18.58083883 22.81289494 19.39849407 23.711092 20.24092674 C40.46487757 35.95681616 57.02629047 51.87127949 73.50986056 67.86998334 C76.2164813 70.49691012 78.9244628 73.12243005 81.63330078 75.74707031 C82.17234005 76.26940347 82.71137932 76.79173664 83.26675311 77.32989807 C91.3898776 85.19461621 99.60941943 92.94800716 107.88818359 100.6484375 C120.63463792 112.51544692 133.21643258 124.53632236 145.546875 136.8359375 C146.04168924 137.32883817 146.53650348 137.82173884 147.04631209 138.3295759 C190.85812254 182.05149056 190.85812254 182.05149056 191.14630127 213.78482056 C190.87743846 226.47323949 188.78263269 238.88668199 185 251 C180.37081419 247.08756693 175.85550556 243.08194625 171.43798828 238.93237305 C170.82409744 238.35717926 170.2102066 237.78198547 169.57771301 237.18936157 C163.94729391 231.89740101 158.38031485 226.54027242 152.83435249 221.15997601 C149.12329594 217.5626795 145.39318016 213.99163217 141.60742188 210.47290039 C113.72071256 184.50499108 113.72071256 184.50499108 112.5574646 171.18977356 C112.60667034 167.18895837 112.96416446 163.35903643 113.64685059 159.41830444 C116.423919 140.40143337 103.61298082 117.18875126 93.125 102.1875 C73.48214235 76.61691607 46.69441494 60.6846896 14.58984375 56.34375 C11.32028225 55.99776466 8.31551118 56.09390337 5.046875 56.421875 C-3.14904493 57.05594551 -9.98374783 57.12446722 -16.5904541 51.62490845 C-22.56104415 46.23876484 -27.88586137 40.19375496 -33 34 C-29.03627475 29.24914133 -24.90205218 24.76386888 -20.5078125 20.41015625 C-19.91700897 19.82076767 -19.32620544 19.23137909 -18.71749878 18.62413025 C-16.85569596 16.76786273 -14.99042255 14.91512915 -13.125 13.0625 C-11.85132989 11.79385328 -10.57789029 10.5249751 -9.3046875 9.25585938 C-6.20577957 6.16789446 -3.10375699 3.08309071 0 0 Z " fill="#E9414B" transform="translate(183,14)"/>
<path d="M0 0 C4.3589214 3.73621834 8.44324812 7.31796559 12.47337341 11.34638977 C12.97754777 11.84900414 13.48172214 12.35161851 14.00117451 12.86946362 C15.66778241 14.53212463 17.33084271 16.19828659 18.99389648 17.86450195 C20.19667765 19.06592638 21.39967108 20.26713834 22.6028595 21.46815491 C25.85261052 24.71336704 29.09921476 27.96170999 32.34510684 31.21078134 C35.74420128 34.61241421 39.14574236 38.01159911 42.54689026 41.41117859 C48.25042599 47.11289845 53.95185715 52.81671638 59.65209961 58.52172852 C66.25037599 65.12546206 72.85226828 71.72556429 79.45601982 78.32382232 C85.12674214 83.99001557 90.79552464 89.65814398 96.46267182 95.32791299 C99.84743021 98.71423329 103.23286759 102.09986734 106.62005424 105.48375893 C109.79798622 108.65881466 112.97348575 111.83628279 116.14707756 115.0156765 C117.3153128 116.18524 118.48441094 117.35394225 119.6544075 118.52174377 C121.2437549 120.10838265 122.83002823 121.69803025 124.41551208 123.28852844 C125.30609031 124.17948369 126.19666853 125.07043894 127.11423397 125.98839283 C129 128 129 128 129 129 C86.43 129 43.86 129 0 129 C0 86.43 0 43.86 0 0 Z " fill="#EA434D" transform="translate(0,239)"/>
<path d="M0 0 C42.57 0 85.14 0 129 0 C129 42.57 129 85.14 129 129 C124.6410786 125.26378166 120.55675188 121.68203441 116.52662659 117.65361023 C116.02245223 117.15099586 115.51827786 116.64838149 114.99882549 116.13053638 C113.33221759 114.46787537 111.66915729 112.80171341 110.00610352 111.13549805 C108.80332235 109.93407362 107.60032892 108.73286166 106.3971405 107.53184509 C103.14738948 104.28663296 99.90078524 101.03829001 96.65489316 97.78921866 C93.25579872 94.38758579 89.85425764 90.98840089 86.45310974 87.58882141 C80.74957401 81.88710155 75.04814285 76.18328362 69.34790039 70.47827148 C62.74962401 63.87453794 56.14773172 57.27443571 49.54398018 50.67617768 C43.87325786 45.00998443 38.20447536 39.34185602 32.53732818 33.67208701 C29.15256979 30.28576671 25.76713241 26.90013266 22.37994576 23.51624107 C19.20201378 20.34118534 16.02651425 17.16371721 12.85292244 13.9843235 C11.6846872 12.81476 10.51558906 11.64605775 9.3455925 10.47825623 C7.7562451 8.89161735 6.16997177 7.30196975 4.58448792 5.71147156 C3.69390969 4.82051631 2.80333147 3.92956106 1.88576603 3.01160717 C0 1 0 1 0 0 Z " fill="#EA434D" transform="translate(239,0)"/>
<path d="M0 0 C11.43232988 -3.11660556 23.75521133 -4.51331205 35 0 C50.74570071 9.23401542 63.49462933 24.86564128 75.82379353 38.18977857 C80.69374786 43.44432602 85.67433324 48.58866019 90.66248167 53.73070312 C98.39881359 61.71341765 106.07881125 69.74882223 113.66088867 77.87841797 C114.41006561 78.67539093 115.15924255 79.47236389 115.93112183 80.29348755 C116.9406768 81.38303741 116.9406768 81.38303741 117.97062683 82.49459839 C118.55936175 83.12694838 119.14809668 83.75929836 119.75467205 84.41081047 C121 86 121 86 121 88 C119.33402887 89.30592609 117.61362861 90.54249292 115.875 91.75 C104.92002137 99.6658876 95.08187425 109.44536306 88 121 C84.50116255 119.41987986 83.69563342 118.39126684 82 115 C80.67128213 114.32418121 79.33726901 113.65873653 78 113 C76.28965378 111.63351536 76.28965378 111.63351536 74.55780029 110.03382874 C73.89599762 109.42535599 73.23419495 108.81688324 72.55233765 108.18997192 C71.83736115 107.52279144 71.12238464 106.85561096 70.38574219 106.16821289 C69.62437958 105.46336258 68.86301697 104.75851227 68.07858276 104.03230286 C61.03082214 97.48060847 54.08127347 90.82601199 47.16166306 84.13935184 C42.52212017 79.65919152 37.8561326 75.21811616 33.10546875 70.85571289 C-1.43732798 39.07087124 -1.43732798 39.07087124 -2.58999252 22.12408733 C-2.73836945 14.61403689 -1.75126241 7.29424692 0 0 Z " fill="#E50D01" transform="translate(0,0)"/>
<path d="M0 0 C3.01628894 1.35247447 5.11057799 2.86111731 7.44219971 5.19496155 C8.43490372 6.18137383 8.43490372 6.18137383 9.44766235 7.18771362 C10.16263885 7.90830963 10.87761536 8.62890564 11.61425781 9.37133789 C12.37562042 10.13080215 13.13698303 10.89026642 13.92141724 11.67274475 C16.43689923 14.18452159 18.9451084 16.70342686 21.453125 19.22265625 C23.19582278 20.96654582 24.93889003 22.71006625 26.68231201 24.45323181 C30.33363208 28.10611617 33.98156609 31.76233753 37.62695312 35.42114258 C42.31195309 40.12316371 47.00354062 44.8185435 51.69743729 49.51168156 C55.29551134 53.11002677 58.89097903 56.71096647 62.48555756 60.31280327 C64.21541667 62.04585548 65.94589178 63.77829305 67.67697906 65.51011848 C70.08829327 67.92358771 72.49629323 70.34031274 74.90332031 72.75805664 C75.62639374 73.48067688 76.34946716 74.20329712 77.0944519 74.94781494 C77.74497528 75.6026033 78.39549866 76.25739166 79.06573486 76.93202209 C79.63573841 77.50370149 80.20574196 78.07538088 80.79301834 78.66438389 C82 80 82 80 82 81 C71.67038642 82.44218124 61.3512766 83.39541616 50.9375 83.9375 C49.78636971 83.99784927 49.78636971 83.99784927 48.61198425 84.05941772 C28.2405135 85.00247325 12.76604077 83.05843045 -2.67996407 68.98689079 C-6.56052857 65.32903572 -10.19309152 61.47098043 -13.75 57.5 C-14.25380817 56.9379826 -14.75761635 56.37596519 -15.27669144 55.79691696 C-21.51344808 48.78255084 -27.39797874 41.53413486 -33 34 C-29.03627475 29.24914133 -24.90205218 24.76386888 -20.5078125 20.41015625 C-19.91700897 19.82076767 -19.32620544 19.23137909 -18.71749878 18.62413025 C-16.85569596 16.76786273 -14.99042255 14.91512915 -13.125 13.0625 C-11.85132989 11.79385328 -10.57789029 10.5249751 -9.3046875 9.25585938 C-6.20577957 6.16789446 -3.10375699 3.08309071 0 0 Z " fill="#FEFEFE" transform="translate(115,287)"/>
<path d="M0 0 C0.95592041 0.84224121 1.91184082 1.68448242 2.89672852 2.55224609 C5.69828056 4.95861799 8.57322267 7.19196904 11.55834961 9.36572266 C45.98346297 34.69598612 45.98346297 34.69598612 49.57170582 53.35041428 C52.63270403 73.54148659 50.41217348 94.84145514 48 115 C42.89158298 110.7237549 38.10890952 106.24775843 33.41235352 101.52587891 C32.68956711 100.80323853 31.9667807 100.08059814 31.22209167 99.33605957 C28.85531584 96.96859215 26.49209281 94.59761225 24.12890625 92.2265625 C22.48003154 90.57582093 20.83093458 88.92530133 19.18162537 87.2749939 C14.85745076 82.94701522 10.5362887 78.61604101 6.21575928 74.28442383 C1.7999613 69.85836624 -2.618696 65.43516519 -7.03710938 61.01171875 C-15.69419795 52.3439301 -24.34810481 43.67297231 -33 35 C-31.59372922 32.07396629 -30.23827317 29.99243355 -27.92724609 27.70019531 C-27.30675385 27.07985413 -26.6862616 26.45951294 -26.04696655 25.82037354 C-25.37920197 25.16293152 -24.71143738 24.5054895 -24.0234375 23.828125 C-23.33819 23.1457074 -22.6529425 22.46328979 -21.94692993 21.76019287 C-19.76094155 19.58538402 -17.56809571 17.41763928 -15.375 15.25 C-13.89016745 13.7752001 -12.40578694 12.29994494 -10.921875 10.82421875 C-7.2864709 7.21084552 -3.64490176 3.60379147 0 0 Z " fill="#FEFDFD" transform="translate(320,82)"/>
<path d="M0 0 C9.32623573 3.6413103 17.47047219 12.46888151 24.86871338 19.13972473 C25.39763058 19.61460201 25.92654778 20.08947929 26.47149277 20.5787468 C40.30568466 33.15078966 49.03194943 44.84473954 50.09136963 63.95222473 C50.81194791 80.56957781 49.30632162 97.36488024 47.11871338 113.82722473 C42.09524279 109.61105796 37.35019012 105.22107231 32.6987915 100.60017395 C31.64146317 99.55511185 31.64146317 99.55511185 30.56277466 98.48893738 C28.25549934 96.2062714 25.9522016 93.91965791 23.64996338 91.63191223 C22.86079025 90.84806278 22.07161713 90.06421333 21.25852966 89.25661087 C17.09380281 85.11849007 12.93267261 80.97678711 8.77398682 76.83259583 C5.32971455 73.40173494 1.87829249 69.97831557 -1.57952881 66.56111145 C-5.76127084 62.42847585 -9.93080283 58.28389734 -14.09162903 54.13020706 C-15.67910928 52.54946246 -17.27085914 50.97299397 -18.86686707 49.40085983 C-21.08856197 47.21055554 -23.29420492 45.00525049 -25.496521 42.79548645 C-26.16237213 42.14604065 -26.82822327 41.49659485 -27.51425171 40.82746887 C-28.40574417 39.92349869 -28.40574417 39.92349869 -29.31524658 39.00126648 C-29.8380294 38.4817938 -30.36081223 37.96232113 -30.89943695 37.42710686 C-31.88128662 35.82722473 -31.88128662 35.82722473 -31.64823151 33.8390522 C-29.30923613 27.70346771 -25.73616335 23.2151449 -21.16253662 18.63972473 C-20.62278198 18.09235657 -20.08302734 17.5449884 -19.5269165 16.98103333 C-18.39449316 15.83788581 -17.25816407 14.69859514 -16.11810303 13.56306458 C-14.37176223 11.8177057 -12.64793282 10.0519672 -10.92425537 8.28425598 C-9.81748297 7.17228295 -8.70945378 6.0615591 -7.60003662 4.95222473 C-7.0863855 4.42217834 -6.57273437 3.89213196 -6.04351807 3.34602356 C-2.40699688 -0.22105591 -2.40699688 -0.22105591 0 0 Z " fill="#FEFDFD" transform="translate(320.88128662109375,219.1727752685547)"/>
<path d="M0 0 C9.25343731 3.94692148 17.54260869 14.29861335 24.83804321 21.265625 C25.36696041 21.76875088 25.89587761 22.27187675 26.4408226 22.79024887 C49.25358298 44.60162907 49.25358298 44.60162907 50.22711182 59.15582275 C50.27669228 66.54471219 49.11504617 73.79784712 47.08804321 80.890625 C35.72144059 84.23242853 23.16954536 85.98279581 12.08804321 80.890625 C2.62053516 74.54597728 -5.30474505 66.13757861 -13.09945679 57.890625 C-13.61955574 57.34056541 -14.13965469 56.79050583 -14.67551422 56.22377777 C-21.2438575 49.24878918 -27.64333867 42.13644935 -33.91195679 34.890625 C-32.70438185 31.50650362 -31.51446139 29.11428937 -28.99447632 26.55322266 C-28.40691559 25.94975006 -27.81935486 25.34627747 -27.21398926 24.72451782 C-26.26397537 23.77420181 -26.26397537 23.77420181 -25.29476929 22.8046875 C-24.31442215 21.81292007 -24.31442215 21.81292007 -23.31427002 20.80111694 C-21.93452736 19.41059488 -20.55081648 18.02400046 -19.16342163 16.64111328 C-17.03726809 14.51593616 -14.93336156 12.37029242 -12.82992554 10.22265625 C-11.48617521 8.87370201 -10.14116545 7.52600092 -8.79476929 6.1796875 C-8.16547516 5.53399811 -7.53618103 4.88830872 -6.88781738 4.22305298 C-6.29395233 3.63849335 -5.70008728 3.05393372 -5.08822632 2.45166016 C-4.5701944 1.93157379 -4.05216248 1.41148743 -3.51843262 0.87564087 C-1.91195679 -0.109375 -1.91195679 -0.109375 0 0 Z " fill="#E50E02" transform="translate(320.9119567871094,287.109375)"/>
<path d="M0 0 C5.20925115 4.36099739 10.09580519 8.93563692 14.90234375 13.734375 C15.6249086 14.45361145 16.34747345 15.1728479 17.0919342 15.91387939 C18.60499385 17.42190926 20.11673124 18.93126687 21.62719727 20.44189453 C23.94983939 22.76232766 26.28039146 25.07462139 28.61132812 27.38671875 C30.08382145 28.85628191 31.55584391 30.32631705 33.02734375 31.796875 C33.72721909 32.48956482 34.42709442 33.18225464 35.1481781 33.89593506 C35.78626907 34.53710266 36.42436005 35.17827026 37.08178711 35.83886719 C37.64691513 36.40257019 38.21204315 36.96627319 38.79429626 37.54705811 C40 39 40 39 40 41 C38.33402887 42.30592609 36.61362861 43.54249292 34.875 44.75 C23.92002137 52.6658876 14.08187425 62.44536306 7 74 C3.50116255 72.41987986 2.69563342 71.39126684 1 68 C-0.33194653 67.33056691 -1.66546816 66.66426424 -3 66 C-4.65789795 64.58261108 -4.65789795 64.58261108 -6.29980469 62.92724609 C-6.92014587 62.30675385 -7.54048706 61.6862616 -8.17962646 61.04696655 C-8.83706848 60.37920197 -9.4945105 59.71143738 -10.171875 59.0234375 C-11.1955014 57.99556625 -11.1955014 57.99556625 -12.23980713 56.94692993 C-14.41461598 54.76094155 -16.58236072 52.56809571 -18.75 50.375 C-20.2247999 48.89016745 -21.70005506 47.40578694 -23.17578125 45.921875 C-26.78915448 42.2864709 -30.39620853 38.64490176 -34 35 C-30.73599817 31.73256479 -27.46531857 28.47198874 -24.19012451 25.21577454 C-21.69654437 22.73560005 -19.2056422 20.25274311 -16.71484375 17.76977539 C-15.39866754 16.45866895 -14.0816013 15.14845542 -12.76367188 13.83911133 C-10.85573296 11.94325097 -8.95099731 10.04422383 -7.046875 8.14453125 C-6.45525574 7.55807327 -5.86363647 6.9716153 -5.25408936 6.36738586 C-2.2591503 3.46364323 -2.2591503 3.46364323 0 0 Z " fill="#EA434D" transform="translate(81,47)"/>
<path d="M0 0 C2.93819723 1.15351844 4.98525379 2.7240468 7.22387695 4.91748047 C8.12919914 5.79882156 8.12919914 5.79882156 9.05281067 6.69796753 C10.01086861 7.64798141 10.01086861 7.64798141 10.98828125 8.6171875 C11.9821711 9.59753464 11.9821711 9.59753464 12.99613953 10.59768677 C14.39150009 11.97856348 15.78408609 13.36224874 17.17407227 14.74853516 C19.31009554 16.872609 21.46405887 18.97731909 23.61914062 21.08203125 C24.97249898 22.42593144 26.32475167 23.7709462 27.67578125 25.1171875 C28.3246077 25.74648163 28.97343414 26.37577576 29.641922 27.0241394 C30.52360298 27.91493698 30.52360298 27.91493698 31.4230957 28.82373047 C32.20774956 29.60077835 32.20774956 29.60077835 33.008255 30.39352417 C34 32 34 32 33.84204102 33.99128723 C32.88851479 36.26595114 31.83246615 37.56033141 30.10424805 39.31567383 C29.49659103 39.93924271 28.88893402 40.56281158 28.26286316 41.20527649 C27.6024855 41.86585556 26.94210785 42.52643463 26.26171875 43.20703125 C25.584543 43.89182053 24.90736725 44.5766098 24.20967102 45.28215027 C22.77688277 46.725737 21.34010401 48.16537244 19.8996582 49.60131836 C17.69221743 51.80778466 15.5069644 54.03471359 13.32226562 56.26367188 C11.92838563 57.66275699 10.53324509 59.06058763 9.13671875 60.45703125 C8.48241379 61.12773148 7.82810883 61.7984317 7.15397644 62.48945618 C6.53686295 63.09726425 5.91974945 63.70507233 5.28393555 64.33129883 C4.74512253 64.87216629 4.20630951 65.41303375 3.65116882 65.97029114 C2 67 2 67 0.00198364 66.84777832 C-2.26361034 65.88836915 -3.56445882 64.82840252 -5.31567383 63.10424805 C-5.93924271 62.49659103 -6.56281158 61.88893402 -7.20527649 61.26286316 C-7.86585556 60.6024855 -8.52643463 59.94210785 -9.20703125 59.26171875 C-10.23421516 58.24595512 -10.23421516 58.24595512 -11.28215027 57.20967102 C-12.725737 55.77688277 -14.16537244 54.34010401 -15.60131836 52.8996582 C-17.80778466 50.69221743 -20.03471359 48.5069644 -22.26367188 46.32226562 C-23.66275699 44.92838563 -25.06058763 43.53324509 -26.45703125 42.13671875 C-27.12773148 41.48241379 -27.7984317 40.82810883 -28.48945618 40.15397644 C-29.09726425 39.53686295 -29.70507233 38.91974945 -30.33129883 38.28393555 C-30.87216629 37.74512253 -31.41303375 37.20630951 -31.97029114 36.65116882 C-33 35 -33 35 -32.84402466 32.9942627 C-31.89818813 30.75943877 -30.88311014 29.5147224 -29.16430664 27.80786133 C-28.570215 27.21076859 -27.97612335 26.61367584 -27.36402893 25.99848938 C-26.71925095 25.3660582 -26.07447296 24.73362701 -25.41015625 24.08203125 C-24.7504332 23.42418137 -24.09071014 22.76633148 -23.41099548 22.08854675 C-22.01650552 20.7007742 -20.61842486 19.31660173 -19.21704102 17.93579102 C-17.06720978 15.81714147 -14.92825764 13.68798205 -12.79101562 11.55664062 C-11.43551741 10.2103114 -10.07941786 8.86458728 -8.72265625 7.51953125 C-8.0799025 6.88102737 -7.43714874 6.2425235 -6.7749176 5.58467102 C-6.1776738 4.99703476 -5.58042999 4.4093985 -4.96508789 3.80395508 C-4.43959854 3.28529373 -3.91410919 2.76663239 -3.37269592 2.23225403 C-2 1 -2 1 0 0 Z " fill="#E50D00" transform="translate(47,287)"/>
<path d="M0 0 C2.93819723 1.15351844 4.98525379 2.7240468 7.22387695 4.91748047 C8.12919914 5.79882156 8.12919914 5.79882156 9.05281067 6.69796753 C10.01086861 7.64798141 10.01086861 7.64798141 10.98828125 8.6171875 C11.9821711 9.59753464 11.9821711 9.59753464 12.99613953 10.59768677 C14.39150009 11.97856348 15.78408609 13.36224874 17.17407227 14.74853516 C19.31009554 16.872609 21.46405887 18.97731909 23.61914062 21.08203125 C24.97249898 22.42593144 26.32475167 23.7709462 27.67578125 25.1171875 C28.3246077 25.74648163 28.97343414 26.37577576 29.641922 27.0241394 C30.52360298 27.91493698 30.52360298 27.91493698 31.4230957 28.82373047 C32.20774956 29.60077835 32.20774956 29.60077835 33.008255 30.39352417 C34 32 34 32 33.84204102 33.99128723 C32.88851479 36.26595114 31.83246615 37.56033141 30.10424805 39.31567383 C29.49659103 39.93924271 28.88893402 40.56281158 28.26286316 41.20527649 C27.6024855 41.86585556 26.94210785 42.52643463 26.26171875 43.20703125 C25.584543 43.89182053 24.90736725 44.5766098 24.20967102 45.28215027 C22.77688277 46.725737 21.34010401 48.16537244 19.8996582 49.60131836 C17.69221743 51.80778466 15.5069644 54.03471359 13.32226562 56.26367188 C11.92838563 57.66275699 10.53324509 59.06058763 9.13671875 60.45703125 C8.48241379 61.12773148 7.82810883 61.7984317 7.15397644 62.48945618 C6.53686295 63.09726425 5.91974945 63.70507233 5.28393555 64.33129883 C4.74512253 64.87216629 4.20630951 65.41303375 3.65116882 65.97029114 C2 67 2 67 0.00099182 66.85174561 C-2.28427746 65.87899397 -3.55638857 64.80562304 -5.29980469 63.04077148 C-5.92014587 62.4202037 -6.54048706 61.79963593 -7.17962646 61.16026306 C-7.83706848 60.48733719 -8.4945105 59.81441132 -9.171875 59.12109375 C-9.8542926 58.4344313 -10.53671021 57.74776886 -11.23980713 57.04029846 C-13.41701196 54.84630585 -15.58355281 52.64211084 -17.75 50.4375 C-19.22456971 48.94788366 -20.69982213 47.4589428 -22.17578125 45.97070312 C-25.79182176 42.32159192 -29.39833288 38.66329621 -33 35 C-31.51243738 29.81791711 -28.27232342 26.86942575 -24.53125 23.203125 C-23.89513794 22.56888611 -23.25902588 21.93464722 -22.6036377 21.28118896 C-21.26220817 19.94646453 -19.91719416 18.61533414 -18.56884766 17.28759766 C-16.50028156 15.2502773 -14.44266181 13.20239445 -12.38671875 11.15234375 C-11.08135175 9.85614354 -9.77538274 8.56054927 -8.46875 7.265625 C-7.85100708 6.65213196 -7.23326416 6.03863892 -6.59680176 5.40655518 C-2.23445924 1.11722962 -2.23445924 1.11722962 0 0 Z " fill="#E50D01" transform="translate(320,14)"/>
<path d="M0 0 C4.83298806 4.02748053 9.38110004 8.24379413 13.80859375 12.7109375 C14.72597069 13.63043686 14.72597069 13.63043686 15.66188049 14.56851196 C17.58947559 16.50164564 19.51353928 18.43824987 21.4375 20.375 C22.75432404 21.69684699 24.07137926 23.01846372 25.38867188 24.33984375 C28.59512373 27.55724299 31.79841629 30.77775681 35 34 C31.03627475 38.75085867 26.90205218 43.23613112 22.5078125 47.58984375 C21.91700897 48.17923233 21.32620544 48.76862091 20.71749878 49.37586975 C18.85569596 51.23213727 16.99042255 53.08487085 15.125 54.9375 C13.85132989 56.20614672 12.57789029 57.4750249 11.3046875 58.74414062 C8.20577957 61.83210554 5.10375699 64.91690929 2 68 C-0.95265112 66.67005617 -3.02350216 65.22220684 -5.29980469 62.92724609 C-5.92014587 62.30675385 -6.54048706 61.6862616 -7.17962646 61.04696655 C-7.83706848 60.37920197 -8.4945105 59.71143738 -9.171875 59.0234375 C-10.1955014 57.99556625 -10.1955014 57.99556625 -11.23980713 56.94692993 C-13.41461598 54.76094155 -15.58236072 52.56809571 -17.75 50.375 C-19.2247999 48.89016745 -20.70005506 47.40578694 -22.17578125 45.921875 C-25.78915448 42.2864709 -29.39620853 38.64490176 -33 35 C-30.48238056 30.16151287 -26.98825039 26.73101307 -23.14453125 22.94921875 C-22.48289474 22.29041214 -21.82125824 21.63160553 -21.13957214 20.95283508 C-19.03521451 18.85962961 -16.92399352 16.77350459 -14.8125 14.6875 C-13.38040012 13.26543631 -11.94875428 11.84291521 -10.51757812 10.41992188 C-7.01695601 6.94129428 -3.51016378 3.46899812 0 0 Z " fill="#EE9DA4" transform="translate(81,252)"/>
<path d="M0 0 C4.75085867 3.96372525 9.23613112 8.09794782 13.58984375 12.4921875 C14.47392662 13.37839279 14.47392662 13.37839279 15.37586975 14.28250122 C17.23213727 16.14430404 19.08487085 18.00957745 20.9375 19.875 C22.20614672 21.14867011 23.4750249 22.42210971 24.74414062 23.6953125 C27.83210554 26.79422043 30.91690929 29.89624301 34 33 C32.67005617 35.95265112 31.22220684 38.02350216 28.92724609 40.29980469 C28.30675385 40.92014587 27.6862616 41.54048706 27.04696655 42.17962646 C26.37920197 42.83706848 25.71143738 43.4945105 25.0234375 44.171875 C24.33819 44.8542926 23.6529425 45.53671021 22.94692993 46.23980713 C20.76094155 48.41461598 18.56809571 50.58236072 16.375 52.75 C14.89016745 54.2247999 13.40578694 55.70005506 11.921875 57.17578125 C8.2864709 60.78915448 4.64490176 64.39620853 1 68 C-3.83298806 63.97251947 -8.38110004 59.75620587 -12.80859375 55.2890625 C-13.42017838 54.67606293 -14.031763 54.06306335 -14.66188049 53.43148804 C-16.58947559 51.49835436 -18.51353928 49.56175013 -20.4375 47.625 C-21.75432404 46.30315301 -23.07137926 44.98153628 -24.38867188 43.66015625 C-27.59512373 40.44275701 -30.79841629 37.22224319 -34 34 C-30.11482503 29.35484226 -26.086386 24.93723607 -21.796875 20.6640625 C-21.23301086 20.09924164 -20.66914673 19.53442078 -20.0881958 18.95248413 C-18.90963356 17.77324754 -17.72983233 16.59524799 -16.54882812 15.41845703 C-14.73710186 13.61214038 -12.93084383 11.8004768 -11.125 9.98828125 C-9.97427927 8.83822045 -8.82324885 7.68846943 -7.671875 6.5390625 C-7.13230164 5.9974649 -6.59272827 5.45586731 -6.0368042 4.89785767 C-2.22999228 1.11499614 -2.22999228 1.11499614 0 0 Z " fill="#EE9DA4" transform="translate(286,48)"/>
<path d="M0 0 C2.29441149 0.96681323 3.5600235 2.036249 5.30752563 3.80523682 C5.92786682 4.4258046 6.54820801 5.04637238 7.18734741 5.68574524 C7.84478943 6.35867111 8.50223145 7.03159698 9.17959595 7.72491455 C10.20322235 8.75490822 10.20322235 8.75490822 11.24752808 9.80570984 C13.42473291 11.99970245 15.59127376 14.20389746 17.75772095 16.4085083 C19.23229066 17.89812464 20.70754308 19.3870655 22.1835022 20.87530518 C25.79954271 24.52441638 29.40605382 28.18271209 33.00772095 31.8460083 C31.71437648 34.69498876 30.35979429 36.73780263 28.13442993 38.93048096 C27.55720688 39.50432526 26.97998383 40.07816956 26.38526917 40.66940308 C25.76438919 41.27682343 25.14350922 41.88424377 24.5038147 42.5100708 C23.86533096 43.14335297 23.22684723 43.77663513 22.5690155 44.42910767 C20.5324472 46.44788819 18.4893102 48.45984559 16.44522095 50.4710083 C14.39844977 52.49017556 12.35314829 54.51077731 10.31071472 56.53433228 C9.04028529 57.79248979 7.76719253 59.04796469 6.4912262 60.30050659 C3.36442811 63.27757325 3.36442811 63.27757325 1.00772095 66.8460083 C-1.94493017 65.51606447 -4.01578122 64.06821514 -6.29208374 61.77325439 C-6.91242493 61.15276215 -7.53276611 60.5322699 -8.17190552 59.89297485 C-8.82934753 59.22521027 -9.48678955 58.55744568 -10.16415405 57.8694458 C-11.18778046 56.84157455 -11.18778046 56.84157455 -12.23208618 55.79293823 C-14.40689503 53.60694985 -16.57463978 51.41410401 -18.74227905 49.2210083 C-20.21707895 47.73617575 -21.69233411 46.25179524 -23.1680603 44.7678833 C-26.78143354 41.1324792 -30.38848759 37.49091006 -33.99227905 33.8460083 C-32.68495894 30.97044566 -31.28216739 28.87497675 -29.07479858 26.62213135 C-28.48723785 26.01858322 -27.89967712 25.4150351 -27.29431152 24.79319763 C-26.34429764 23.83513969 -26.34429764 23.83513969 -25.37509155 22.85772705 C-24.39474442 21.8638372 -24.39474442 21.8638372 -23.39459229 20.84986877 C-22.01371558 19.45450821 -20.63003031 18.06192221 -19.2437439 16.67193604 C-17.11967006 14.53591276 -15.01495996 12.38194943 -12.9102478 10.22686768 C-11.56634761 8.87350932 -10.22133285 7.52125663 -8.87509155 6.17022705 C-8.24579742 5.5214006 -7.6165033 4.87257416 -6.96813965 4.2040863 C-6.07734207 3.32240532 -6.07734207 3.32240532 -5.16854858 2.4229126 C-4.3915007 1.63825874 -4.3915007 1.63825874 -3.59875488 0.8377533 C-1.99227905 -0.1539917 -1.99227905 -0.1539917 0 0 Z " fill="#FEFEFE" transform="translate(47.992279052734375,219.15399169921875)"/>
<path d="M0 0 C2.93745916 1.32634942 5.02143479 2.7693366 7.29980469 5.04101562 C7.92014587 5.65505249 8.54048706 6.26908936 9.17962646 6.9017334 C9.83706848 7.56322388 10.4945105 8.22471436 11.171875 8.90625 C12.1955014 9.92700623 12.1955014 9.92700623 13.23980713 10.96838379 C14.67779427 12.40501197 16.11326692 13.84416085 17.54638672 15.28564453 C19.74877028 17.49876429 21.96164933 19.70098472 24.17578125 21.90234375 C25.57095454 23.29883803 26.96550762 24.69595227 28.359375 26.09375 C29.02491394 26.75524048 29.69045288 27.41673096 30.37615967 28.0982666 C30.98389221 28.71230347 31.59162476 29.32634033 32.21777344 29.95898438 C33.02574371 30.76934143 33.02574371 30.76934143 33.85003662 31.59606934 C35 33 35 33 35 35 C33.70703125 36.27172852 33.70703125 36.27172852 31.8125 37.81640625 C25.52486454 43.16283702 19.80961532 49.08406037 14 54.9375 C12.83226626 56.11026009 11.66429926 57.28278798 10.49609375 58.45507812 C7.66136766 61.30071689 4.82981176 64.14947453 2 67 C-0.87556264 65.69267989 -2.97103155 64.28988834 -5.22387695 62.08251953 C-6.12919914 61.20117844 -6.12919914 61.20117844 -7.05281067 60.30203247 C-7.69151596 59.66868988 -8.33022125 59.03534729 -8.98828125 58.3828125 C-9.9821711 57.40246536 -9.9821711 57.40246536 -10.99613953 56.40231323 C-12.39150009 55.02143652 -13.78408609 53.63775126 -15.17407227 52.25146484 C-17.31009554 50.127391 -19.46405887 48.02268091 -21.61914062 45.91796875 C-22.97249898 44.57406856 -24.32475167 43.2290538 -25.67578125 41.8828125 C-26.3246077 41.25351837 -26.97343414 40.62422424 -27.641922 39.9758606 C-28.22970932 39.38199554 -28.81749664 38.78813049 -29.4230957 38.17626953 C-29.94619827 37.65823761 -30.46930084 37.14020569 -31.008255 36.60647583 C-32 35 -32 35 -31.8460083 33.00772095 C-30.87919507 30.71330945 -29.8097593 29.44769744 -28.04077148 27.70019531 C-27.4202037 27.07985413 -26.79963593 26.45951294 -26.16026306 25.82037354 C-25.48733719 25.16293152 -24.81441132 24.5054895 -24.12109375 23.828125 C-23.4344313 23.1457074 -22.74776886 22.46328979 -22.04029846 21.76019287 C-19.84630585 19.58298804 -17.64211084 17.41644719 -15.4375 15.25 C-13.94788366 13.77543029 -12.4589428 12.30017787 -10.97070312 10.82421875 C-7.32159192 7.20817824 -3.66329621 3.60166712 0 0 Z " fill="#FEFDFD" transform="translate(251,14)"/>
<path d="M0 0 C4.75085867 3.96372525 9.23613112 8.09794782 13.58984375 12.4921875 C14.47392662 13.37839279 14.47392662 13.37839279 15.37586975 14.28250122 C17.23213727 16.14430404 19.08487085 18.00957745 20.9375 19.875 C22.20614672 21.14867011 23.4750249 22.42210971 24.74414062 23.6953125 C27.83210554 26.79422043 30.91690929 29.89624301 34 33 C32.69267989 35.87556264 31.28988834 37.97103155 29.08251953 40.22387695 C28.4949588 40.82742508 27.90739807 41.43097321 27.30203247 42.05281067 C26.66868988 42.69151596 26.03534729 43.33022125 25.3828125 43.98828125 C24.40246536 44.9821711 24.40246536 44.9821711 23.40231323 45.99613953 C22.02143652 47.39150009 20.63775126 48.78408609 19.25146484 50.17407227 C17.127391 52.31009554 15.02268091 54.46405887 12.91796875 56.61914062 C11.57406856 57.97249898 10.2290538 59.32475167 8.8828125 60.67578125 C8.25351837 61.3246077 7.62422424 61.97343414 6.9758606 62.641922 C6.08506302 63.52360298 6.08506302 63.52360298 5.17626953 64.4230957 C4.65823761 64.94619827 4.14020569 65.46930084 3.60647583 66.008255 C2 67 2 67 0.00772095 66.8460083 C-2.28669055 65.87919507 -3.55230256 64.8097593 -5.29980469 63.04077148 C-5.92014587 62.4202037 -6.54048706 61.79963593 -7.17962646 61.16026306 C-7.83706848 60.48733719 -8.4945105 59.81441132 -9.171875 59.12109375 C-9.8542926 58.4344313 -10.53671021 57.74776886 -11.23980713 57.04029846 C-13.41701196 54.84630585 -15.58355281 52.64211084 -17.75 50.4375 C-19.22456971 48.94788366 -20.69982213 47.4589428 -22.17578125 45.97070312 C-25.79182176 42.32159192 -29.39833288 38.66329621 -33 35 C-31.67005617 32.04734888 -30.22220684 29.97649784 -27.92724609 27.70019531 C-27.30675385 27.07985413 -26.6862616 26.45951294 -26.04696655 25.82037354 C-25.37920197 25.16293152 -24.71143738 24.5054895 -24.0234375 23.828125 C-23.33819 23.1457074 -22.6529425 22.46328979 -21.94692993 21.76019287 C-19.76094155 19.58538402 -17.56809571 17.41763928 -15.375 15.25 C-13.89016745 13.7752001 -12.40578694 12.29994494 -10.921875 10.82421875 C-7.2864709 7.21084552 -3.64490176 3.60379147 0 0 Z " fill="#FEFDFD" transform="translate(47,82)"/>
<path d="M0 0 C2.87556264 1.30732011 4.97103155 2.71011166 7.22387695 4.91748047 C8.12919914 5.79882156 8.12919914 5.79882156 9.05281067 6.69796753 C10.01086861 7.64798141 10.01086861 7.64798141 10.98828125 8.6171875 C11.9821711 9.59753464 11.9821711 9.59753464 12.99613953 10.59768677 C14.39150009 11.97856348 15.78408609 13.36224874 17.17407227 14.74853516 C19.31009554 16.872609 21.46405887 18.97731909 23.61914062 21.08203125 C24.97249898 22.42593144 26.32475167 23.7709462 27.67578125 25.1171875 C28.3246077 25.74648163 28.97343414 26.37577576 29.641922 27.0241394 C30.52360298 27.91493698 30.52360298 27.91493698 31.4230957 28.82373047 C32.20774956 29.60077835 32.20774956 29.60077835 33.008255 30.39352417 C34 32 34 32 33.8460083 33.99227905 C32.87919507 36.28669055 31.8097593 37.55230256 30.04077148 39.29980469 C29.4202037 39.92014587 28.79963593 40.54048706 28.16026306 41.17962646 C27.48733719 41.83706848 26.81441132 42.4945105 26.12109375 43.171875 C25.4344313 43.8542926 24.74776886 44.53671021 24.04029846 45.23980713 C21.84630585 47.41701196 19.64211084 49.58355281 17.4375 51.75 C15.94788366 53.22456971 14.4589428 54.69982213 12.97070312 56.17578125 C9.32159192 59.79182176 5.66329621 63.39833288 2 67 C-0.95265112 65.67005617 -3.02350216 64.22220684 -5.29980469 61.92724609 C-5.92014587 61.30675385 -6.54048706 60.6862616 -7.17962646 60.04696655 C-7.83706848 59.37920197 -8.4945105 58.71143738 -9.171875 58.0234375 C-10.1955014 56.99556625 -10.1955014 56.99556625 -11.23980713 55.94692993 C-13.41461598 53.76094155 -15.58236072 51.56809571 -17.75 49.375 C-19.2247999 47.89016745 -20.70005506 46.40578694 -22.17578125 44.921875 C-25.78915448 41.2864709 -29.39620853 37.64490176 -33 34 C-29.03627475 29.24914133 -24.90205218 24.76386888 -20.5078125 20.41015625 C-19.91700897 19.82076767 -19.32620544 19.23137909 -18.71749878 18.62413025 C-16.85569596 16.76786273 -14.99042255 14.91512915 -13.125 13.0625 C-11.85132989 11.79385328 -10.57789029 10.5249751 -9.3046875 9.25585938 C-6.20577957 6.16789446 -3.10375699 3.08309071 0 0 Z " fill="#FEFEFE" transform="translate(115,14)"/>
<path d="M0 0 C2.28635717 0.89381773 3.47686631 1.90235957 5.19802856 3.645401 C5.798349 4.24594803 6.39866943 4.84649506 7.0171814 5.46524048 C7.65274963 6.11629257 8.28831787 6.76734467 8.94314575 7.43812561 C9.60336731 8.10259201 10.26358887 8.76705841 10.94381714 9.45166016 C13.04969715 11.57432499 15.14490403 13.70718541 17.24002075 15.84046936 C18.66641307 17.2819087 20.09348845 18.72267245 21.52127075 20.16273499 C25.01882669 23.69335769 28.5068464 27.23315989 31.99002075 30.77796936 C28.0262955 35.52882803 23.89207294 40.01410048 19.49783325 44.36781311 C18.90702972 44.95720169 18.3162262 45.54659027 17.70751953 46.15383911 C15.84571671 48.01010663 13.98044331 49.86284021 12.11502075 51.71546936 C10.84135065 52.98411608 9.56791104 54.25299426 8.29470825 55.52210999 C5.19580032 58.6100749 2.09377774 61.69487865 -1.00997925 64.77796936 C-3.88554189 63.47064925 -5.9810108 62.0678577 -8.2338562 59.86048889 C-9.13917839 58.9791478 -9.13917839 58.9791478 -10.06278992 58.08000183 C-10.70149521 57.44665924 -11.3402005 56.81331665 -11.9982605 56.16078186 C-12.99215034 55.18043472 -12.99215034 55.18043472 -14.00611877 54.18028259 C-15.40147934 52.79940588 -16.79406534 51.41572062 -18.18405151 50.0294342 C-20.32007479 47.90536036 -22.47403811 45.80065027 -24.62911987 43.69593811 C-25.98247823 42.35203792 -27.33473092 41.00702316 -28.6857605 39.66078186 C-29.33458694 39.03148773 -29.98341339 38.4021936 -30.65190125 37.75382996 C-31.23968857 37.1599649 -31.82747589 36.56609985 -32.43307495 35.95423889 C-32.95617752 35.43620697 -33.47928009 34.91817505 -34.01823425 34.38444519 C-35.00997925 32.77796936 -35.00997925 32.77796936 -34.81462097 30.74729919 C-33.51929993 27.57705049 -31.08624256 25.42779248 -28.68966675 23.05921936 C-28.15278229 22.51946472 -27.61589783 21.97971008 -27.06274414 21.42359924 C-25.92481983 20.28363531 -24.78310558 19.14744376 -23.63790894 18.01478577 C-21.90161605 16.29445323 -20.1817786 14.55885136 -18.46310425 12.82093811 C-17.35208479 11.71190294 -16.24013409 10.60379973 -15.12716675 9.49671936 C-14.61958832 8.98306824 -14.11200989 8.46941711 -13.58905029 7.94020081 C-4.93863602 -0.54554221 -4.93863602 -0.54554221 0 0 Z " fill="#FEFDFD" transform="translate(254.00997924804688,289.22203063964844)"/>
<path d="M0 0 C0.45931412 0.399272 0.91862823 0.79854401 1.39186096 1.20991516 C4.50825271 3.90311625 7.61775279 6.5132582 10.96484375 8.91796875 C17.73078719 14.26890523 22.1419418 18.90936175 23.25 27.73828125 C23.37025872 30.15667273 23.43247001 32.57862556 23.4375 35 C23.4470874 36.16942139 23.4566748 37.33884277 23.46655273 38.54370117 C23.092115 46.58861462 23.092115 46.58861462 20.32641602 50.1628418 C18.3000782 51.93277301 16.20586773 53.46256928 14 55 C12.9259036 55.98159124 11.87273537 56.98685645 10.84765625 58.01953125 C9.43687572 59.43426909 8.02588282 60.84882228 6.60742188 62.25585938 C3.97189805 64.87789468 3.97189805 64.87789468 2 68 C-0.95265112 66.67005617 -3.02350216 65.22220684 -5.29980469 62.92724609 C-5.92014587 62.30675385 -6.54048706 61.6862616 -7.17962646 61.04696655 C-7.83706848 60.37920197 -8.4945105 59.71143738 -9.171875 59.0234375 C-10.1955014 57.99556625 -10.1955014 57.99556625 -11.23980713 56.94692993 C-13.41461598 54.76094155 -15.58236072 52.56809571 -17.75 50.375 C-19.2247999 48.89016745 -20.70005506 47.40578694 -22.17578125 45.921875 C-25.78915448 42.2864709 -29.39620853 38.64490176 -33 35 C-31.67005617 32.04734888 -30.22220684 29.97649784 -27.92724609 27.70019531 C-27.30675385 27.07985413 -26.6862616 26.45951294 -26.04696655 25.82037354 C-25.37920197 25.16293152 -24.71143738 24.5054895 -24.0234375 23.828125 C-23.33819 23.1457074 -22.6529425 22.46328979 -21.94692993 21.76019287 C-19.76094155 19.58538402 -17.56809571 17.41763928 -15.375 15.25 C-13.89016745 13.7752001 -12.40578694 12.29994494 -10.921875 10.82421875 C-7.2864709 7.21084552 -3.64490176 3.60379147 0 0 Z " fill="#E40C00" transform="translate(47,150)"/>
<path d="M0 0 C2.95265112 1.32994383 5.02350216 2.77779316 7.29980469 5.07275391 C7.92014587 5.69324615 8.54048706 6.3137384 9.17962646 6.95303345 C9.83706848 7.62079803 10.4945105 8.28856262 11.171875 8.9765625 C12.1955014 10.00443375 12.1955014 10.00443375 13.23980713 11.05307007 C15.41461598 13.23905845 17.58236072 15.43190429 19.75 17.625 C21.2247999 19.10983255 22.70005506 20.59421306 24.17578125 22.078125 C27.78915448 25.7135291 31.39620853 29.35509824 35 33 C28.74934341 40.38511939 28.74934341 40.38511939 25.60546875 43.45703125 C25.04279297 44.01197266 24.48011719 44.56691406 23.90039062 45.13867188 C23.33513672 45.69103516 22.76988281 46.24339844 22.1875 46.8125 C18.11000683 50.53424928 18.11000683 50.53424928 15 55 C-6.5701689 58.35077735 -6.5701689 58.35077735 -15.33984375 52.93896484 C-22.10572861 47.57961081 -27.72513883 40.78233248 -33 34 C-29.03627475 29.24914133 -24.90205218 24.76386888 -20.5078125 20.41015625 C-19.91700897 19.82076767 -19.32620544 19.23137909 -18.71749878 18.62413025 C-16.85569596 16.76786273 -14.99042255 14.91512915 -13.125 13.0625 C-11.85132989 11.79385328 -10.57789029 10.5249751 -9.3046875 9.25585938 C-6.20577957 6.16789446 -3.10375699 3.08309071 0 0 Z " fill="#E40C00" transform="translate(183,14)"/>
<path d="M0 0 C4.78515625 4.00390625 4.78515625 4.00390625 7 6 C7.56875854 6.3865979 8.13751709 6.7731958 8.72351074 7.17150879 C12.17240069 9.87426736 13.79855543 11.92385393 14.61705017 16.29637146 C14.81069433 20.47421798 14.78814976 24.59871308 14.68359375 28.77734375 C14.67052244 30.31431312 14.6605655 31.85131185 14.65357971 33.38832092 C14.62697323 37.4151904 14.55832032 41.44026557 14.48065186 45.46643066 C14.40877904 49.58219127 14.37701731 53.69824457 14.34179688 57.81445312 C14.26693733 65.8771215 14.14761903 73.93833696 14 82 C8.1202495 77.12275563 2.73119183 71.86113122 -2.65234375 66.4453125 C-3.55247696 65.54376434 -4.45261017 64.64221619 -5.38002014 63.71334839 C-7.75072823 61.33801783 -10.11924515 58.96054595 -12.48669434 56.58197021 C-14.91180728 54.14655283 -17.33982085 51.71403088 -19.76757812 49.28125 C-24.51437128 44.52347231 -29.25829281 39.7628462 -34 35 C-30.73599817 31.73256479 -27.46531857 28.47198874 -24.19012451 25.21577454 C-21.69654437 22.73560005 -19.2056422 20.25274311 -16.71484375 17.76977539 C-15.39866754 16.45866895 -14.0816013 15.14845542 -12.76367188 13.83911133 C-10.85573296 11.94325097 -8.95099731 10.04422383 -7.046875 8.14453125 C-6.45525574 7.55807327 -5.86363647 6.9716153 -5.25408936 6.36738586 C-2.2591503 3.46364323 -2.2591503 3.46364323 0 0 Z " fill="#EA434D" transform="translate(354,47)"/>
<path d="M0 0 C5.86970122 4.87336087 11.26604835 10.12056808 16.65234375 15.51953125 C18.00254356 16.86829597 18.00254356 16.86829597 19.38002014 18.24430847 C21.26964342 20.13325439 23.15823816 22.02316308 25.04516602 23.91479492 C27.46847733 26.34385209 29.89631743 28.76832574 32.32547665 31.19153309 C34.64518724 33.50677961 36.961105 35.82581218 39.27734375 38.14453125 C40.15220932 39.01737259 41.02707489 39.89021393 41.92845154 40.789505 C42.72670853 41.59091415 43.52496552 42.3923233 44.34741211 43.21801758 C45.05465927 43.92606033 45.76190643 44.63410309 46.49058533 45.36360168 C48 47 48 47 48 48 C39.32442844 48.25609706 30.65017791 48.45092102 21.97163677 48.56993389 C17.94057921 48.62708897 13.91212653 48.70444622 9.88256836 48.82983398 C5.98546566 48.95032605 2.09084908 49.01531732 -1.80797386 49.04364967 C-3.28692948 49.06380758 -4.76576521 49.10317587 -6.24364662 49.16303062 C-18.38875218 49.63485726 -18.38875218 49.63485726 -23.3296814 45.58340454 C-26.14473344 42.93448302 -28.57968125 40.01218287 -31 37 C-31.98393136 35.98418551 -32.97564424 34.97503603 -34 34 C-33.57259521 33.64333252 -33.14519043 33.28666504 -32.70483398 32.91918945 C-26.4182295 27.55368139 -20.59928622 21.75156776 -14.77026367 15.90063477 C-13.04525287 14.17019863 -11.31487572 12.4452551 -9.58398438 10.72070312 C-8.48405367 9.62011271 -7.38443262 8.51921272 -6.28515625 7.41796875 C-5.76856949 6.90340622 -5.25198273 6.38884369 -4.71974182 5.85868835 C-2.0237081 3.18266241 -2.0237081 3.18266241 0 0 Z " fill="#E9424C" transform="translate(81,320)"/>
<path d="M0 0 C5.86970122 4.87336087 11.26604835 10.12056808 16.65234375 15.51953125 C18.00254356 16.86829597 18.00254356 16.86829597 19.38002014 18.24430847 C21.26964342 20.13325439 23.15823816 22.02316308 25.04516602 23.91479492 C27.46847733 26.34385209 29.89631743 28.76832574 32.32547665 31.19153309 C34.64518724 33.50677961 36.961105 35.82581218 39.27734375 38.14453125 C40.15220932 39.01737259 41.02707489 39.89021393 41.92845154 40.789505 C42.72670853 41.59091415 43.52496552 42.3923233 44.34741211 43.21801758 C45.05465927 43.92606033 45.76190643 44.63410309 46.49058533 45.36360168 C48 47 48 47 48 48 C39.35919249 48.30307401 30.72024975 48.53310023 22.07526112 48.67355824 C18.05939574 48.74102451 14.04719999 48.83226875 10.03344727 48.98071289 C-19.53470377 50.04709742 -19.53470377 50.04709742 -27.02449036 43.29142761 C-29.37794978 40.66586732 -31.2402734 38.05823775 -33 35 C-29.11644133 30.34713429 -25.07962714 25.950104 -20.76171875 21.69921875 C-20.19548294 21.13676956 -19.62924713 20.57432037 -19.04585266 19.99482727 C-17.26217914 18.22323256 -15.47526323 16.45496696 -13.6875 14.6875 C-11.31354594 12.34010236 -8.94290533 9.98943012 -6.57421875 7.63671875 C-6.0294841 7.10028244 -5.48474945 6.56384613 -4.92350769 6.01115417 C-2.1093061 3.27379819 -2.1093061 3.27379819 0 0 Z " fill="#ED9CA3" transform="translate(149,320)"/>
<path d="M0 0 C5.8797505 4.87724437 11.26880817 10.13886878 16.65234375 15.5546875 C17.55247696 16.45623566 18.45261017 17.35778381 19.38002014 18.28665161 C21.75072823 20.66198217 24.11924515 23.03945405 26.48669434 25.41802979 C28.91180728 27.85344717 31.33982085 30.28596912 33.76757812 32.71875 C38.51437128 37.47652769 43.25829281 42.2371538 48 47 C36.66666667 58.33333333 25.33333333 69.66666667 14 81 C12.32478357 79.59828829 10.65598236 78.1881827 9.02076721 76.74000549 C7.05420726 74.99007812 7.05420726 74.99007812 5.00059509 73.58995056 C1.6375484 70.94166805 0.19025091 69.03078211 -0.59835815 64.75808716 C-0.81178059 60.63252824 -0.78841233 56.56829975 -0.68359375 52.44140625 C-0.67052206 50.92685747 -0.6605653 49.4122789 -0.65357971 47.89768982 C-0.62697608 43.9299914 -0.55832608 39.96411472 -0.48065186 35.99713135 C-0.4087726 31.9416976 -0.37701597 27.8859666 -0.34179688 23.83007812 C-0.26694244 15.88588691 -0.147628 7.94317068 0 0 Z " fill="#ED9CA3" transform="translate(0,171)"/>
<path d="M0 0 C1.67521643 1.40171171 3.34401764 2.8118173 4.97923279 4.25999451 C6.94579274 6.00992188 6.94579274 6.00992188 8.99940491 7.41004944 C12.3624516 10.05833195 13.80974909 11.96921789 14.59835815 16.24191284 C14.81178059 20.36747176 14.78841233 24.43170025 14.68359375 28.55859375 C14.67052206 30.07314253 14.6605653 31.5877211 14.65357971 33.10231018 C14.62697608 37.0700086 14.55832608 41.03588528 14.48065186 45.00286865 C14.4087726 49.0583024 14.37701597 53.1140334 14.34179688 57.16992188 C14.26694244 65.11411309 14.147628 73.05682932 14 81 C8.1202495 76.12275563 2.73119183 70.86113122 -2.65234375 65.4453125 C-3.55247696 64.54376434 -4.45261017 63.64221619 -5.38002014 62.71334839 C-7.75072823 60.33801783 -10.11924515 57.96054595 -12.48669434 55.58197021 C-14.91180728 53.14655283 -17.33982085 50.71403088 -19.76757812 48.28125 C-24.51437128 43.52347231 -29.25829281 38.7628462 -34 34 C-22.66666667 22.66666667 -11.33333333 11.33333333 0 0 Z " fill="#ED9CA3" transform="translate(354,116)"/>
<path d="M0 0 C3.52564829 1.5060077 5.79532278 3.54742795 8.49316406 6.25024414 C9.37377502 7.12777847 10.25438599 8.00531281 11.16168213 8.90943909 C12.11317825 9.86783099 13.0644882 10.82640775 14.015625 11.78515625 C14.99603394 12.76675771 15.97681328 13.74798934 16.95794678 14.72886658 C19.00860901 16.78109024 21.05587482 18.83662265 23.10058594 20.89477539 C25.72741757 23.53865244 28.36084046 26.17584248 30.99658585 28.81083012 C33.01967516 30.83419062 35.04015354 32.86014094 37.05974579 34.8869915 C38.03043014 35.86086653 39.00172887 36.83412958 39.97364044 37.80677986 C41.32642408 39.16171965 42.67551821 40.5203401 44.02441406 41.87915039 C45.17879974 43.03925377 45.17879974 43.03925377 46.35650635 44.22279358 C48 46 48 46 48 47 C39.35919249 47.30307401 30.72024975 47.53310023 22.07526112 47.67355824 C18.05939574 47.74102451 14.04719999 47.83226875 10.03344727 47.98071289 C-19.53470377 49.04709742 -19.53470377 49.04709742 -27.02449036 42.29142761 C-29.37794978 39.66586732 -31.2402734 37.05823775 -33 34 C-29.03627475 29.24914133 -24.90205218 24.76386888 -20.5078125 20.41015625 C-19.91700897 19.82076767 -19.32620544 19.23137909 -18.71749878 18.62413025 C-16.85569596 16.76786273 -14.99042255 14.91512915 -13.125 13.0625 C-11.85132989 11.79385328 -10.57789029 10.5249751 -9.3046875 9.25585938 C-6.20577957 6.16789446 -3.10375699 3.08309071 0 0 Z " fill="#ED9CA3" transform="translate(285,321)"/>
<path d="M0 0 C5.79835896 4.81437438 11.12281785 9.99248432 16.43359375 15.3359375 C17.31153091 16.21528961 18.18946808 17.09464172 19.0940094 18.00064087 C21.87754412 20.78974058 24.65756769 23.58231018 27.4375 26.375 C29.33216665 28.2752542 31.2275963 30.17474653 33.12304688 32.07421875 C37.75135161 36.71350604 42.37678421 41.35564167 47 46 C45.67005617 48.95265112 44.22220684 51.02350216 41.92724609 53.29980469 C41.30675385 53.92014587 40.6862616 54.54048706 40.04696655 55.17962646 C39.37920197 55.83706848 38.71143738 56.4945105 38.0234375 57.171875 C37.33819 57.8542926 36.6529425 58.53671021 35.94692993 59.23980713 C33.76094155 61.41461598 31.56809571 63.58236072 29.375 65.75 C27.89016745 67.2247999 26.40578694 68.70005506 24.921875 70.17578125 C21.2864709 73.78915448 17.64490176 77.39620853 14 81 C12.32478357 79.59828829 10.65598236 78.1881827 9.02076721 76.74000549 C7.05420726 74.99007812 7.05420726 74.99007812 5.00059509 73.58995056 C1.6375484 70.94166805 0.19025091 69.03078211 -0.59835815 64.75808716 C-0.81178059 60.63252824 -0.78841233 56.56829975 -0.68359375 52.44140625 C-0.67052206 50.92685747 -0.6605653 49.4122789 -0.65357971 47.89768982 C-0.62697608 43.9299914 -0.55832608 39.96411472 -0.48065186 35.99713135 C-0.4087726 31.9416976 -0.37701597 27.8859666 -0.34179688 23.83007812 C-0.26694244 15.88588691 -0.147628 7.94317068 0 0 Z " fill="#EE9DA4" transform="translate(0,35)"/>
<path d="M0 0 C8.64080751 -0.30307401 17.27975025 -0.53310023 25.92473888 -0.67355824 C29.94060426 -0.74102451 33.95280001 -0.83226875 37.96655273 -0.98071289 C67.53470377 -2.04709742 67.53470377 -2.04709742 75.02449036 4.70857239 C77.37794978 7.33413268 79.2402734 9.94176225 81 13 C77.12082108 17.64236968 73.09468882 22.04470446 68.796875 26.30078125 C68.23301086 26.86323044 67.66914673 27.42567963 67.0881958 28.00517273 C65.31116224 29.77667559 63.53066281 31.54464598 61.75 33.3125 C60.54143333 34.51604178 59.33309802 35.71981593 58.125 36.92382812 C55.92427453 39.11642642 53.72230738 41.3077588 51.51855469 43.49731445 C50.01026806 44.99609753 48.50354237 46.49645763 47 48 C42.29333458 43.34389581 37.59441048 38.68008529 32.90087891 34.01074219 C31.30208228 32.42202543 29.70149831 30.83510531 28.09912109 29.25 C25.80097749 26.97601746 23.50926378 24.69572688 21.21875 22.4140625 C20.49691528 21.70255035 19.77508057 20.99103821 19.03137207 20.25796509 C18.37068726 19.59743134 17.71000244 18.93689758 17.02929688 18.25634766 C16.44305542 17.67454742 15.85681396 17.09274719 15.25280762 16.49331665 C14 15 14 15 14 13 C13.44828125 12.77441406 12.8965625 12.54882812 12.328125 12.31640625 C9.30047473 10.60446306 7.18674251 8.41342989 4.75 5.9375 C3.85796875 5.03902344 2.9659375 4.14054688 2.046875 3.21484375 C0 1 0 1 0 0 Z " fill="#ED9CA3" transform="translate(171,0)"/>
<path d="M0 0 C8.64080751 -0.30307401 17.27975025 -0.53310023 25.92473888 -0.67355824 C29.94060426 -0.74102451 33.95280001 -0.83226875 37.96655273 -0.98071289 C67.53470377 -2.04709742 67.53470377 -2.04709742 75.02449036 4.70857239 C77.37794978 7.33413268 79.2402734 9.94176225 81 13 C77.03627475 17.75085867 72.90205218 22.23613112 68.5078125 26.58984375 C67.91700897 27.17923233 67.32620544 27.76862091 66.71749878 28.37586975 C64.85569596 30.23213727 62.99042255 32.08487085 61.125 33.9375 C59.85132989 35.20614672 58.57789029 36.4750249 57.3046875 37.74414062 C54.20577957 40.83210554 51.10375699 43.91690929 48 47 C44.47435171 45.4939923 42.20467722 43.45257205 39.50683594 40.74975586 C38.62622498 39.87222153 37.74561401 38.99468719 36.83831787 38.09056091 C35.88682175 37.13216901 34.9355118 36.17359225 33.984375 35.21484375 C33.00396606 34.23324229 32.02318672 33.25201066 31.04205322 32.27113342 C28.99139099 30.21890976 26.94412518 28.16337735 24.89941406 26.10522461 C22.27258243 23.46134756 19.63915954 20.82415752 17.00341415 18.18916988 C14.98032484 16.16580938 12.95984646 14.13985906 10.94025421 12.1130085 C9.96956986 11.13913347 8.99827113 10.16587042 8.02635956 9.19322014 C6.67357592 7.83828035 5.32448179 6.4796599 3.97558594 5.12084961 C3.20599548 4.34744736 2.43640503 3.5740451 1.64349365 2.77720642 C0 1 0 1 0 0 Z " fill="#ED9DA4" transform="translate(35,0)"/>
<path d="M0 0 C5.40707296 2.34859482 10.08332146 6.93023722 13.16339111 11.93968201 C14.59795845 17.30509143 14.45985751 22.40135553 14.23760986 27.88890076 C14.21704522 29.39769771 14.20140995 30.90656906 14.19044495 32.41546631 C14.14881323 36.3515121 14.04112326 40.28295809 13.91870117 44.21720886 C13.8053473 48.24581174 13.75576224 52.27517214 13.70050049 56.30491638 C13.58318577 64.18526257 13.39593804 72.0618973 13.16339111 79.93968201 C7.36503216 75.12530763 2.04057326 69.94719769 -3.27020264 64.60374451 C-4.1481398 63.7243924 -5.02607697 62.84504028 -5.93061829 61.93904114 C-8.714153 59.14994143 -11.49417657 56.35737183 -14.27410889 53.56468201 C-16.16877554 51.6644278 -18.06420518 49.76493548 -19.95965576 47.86546326 C-24.5879605 43.22617597 -29.21339309 38.58404034 -33.83660889 33.93968201 C-32.08499298 30.88283662 -30.36265891 28.21216984 -27.8973999 25.69407654 C-27.32993546 25.11062469 -26.76247101 24.52717285 -26.17781067 23.92604065 C-25.26834938 23.00853531 -25.26834938 23.00853531 -24.34051514 22.07249451 C-23.71056137 21.43351227 -23.0806076 20.79453003 -22.43156433 20.13618469 C-21.10372928 18.79389286 -19.77310882 17.45435138 -18.43988037 16.11741638 C-16.39710865 14.06267005 -14.37373385 11.98999563 -12.35028076 9.91624451 C-11.05650975 8.61301765 -9.76162572 7.31089459 -8.46551514 6.00999451 C-7.55909019 5.07427109 -7.55909019 5.07427109 -6.63435364 4.11964417 C-2.39098778 -0.07852493 -2.39098778 -0.07852493 0 0 Z " fill="#E9414B" transform="translate(354.83660888671875,185.06031799316406)"/>
<path d="M0 0 C4.83298806 4.02748053 9.38110004 8.24379413 13.80859375 12.7109375 C14.72597069 13.63043686 14.72597069 13.63043686 15.66188049 14.56851196 C17.58947559 16.50164564 19.51353928 18.43824987 21.4375 20.375 C22.75432404 21.69684699 24.07137926 23.01846372 25.38867188 24.33984375 C28.59512373 27.55724299 31.79841629 30.77775681 35 34 C31.78678057 37.21657742 28.56716507 40.42656816 25.34259033 43.63175964 C22.94059847 46.02033533 20.54129579 48.41160492 18.14208984 50.80297852 C16.8744157 52.06558196 15.60585172 53.32729259 14.33642578 54.58813477 C12.497985 56.41449612 10.66274903 58.24402443 8.828125 60.07421875 C8.25837952 60.63880295 7.68863403 61.20338715 7.10162354 61.78507996 C4.19122489 64.61937579 4.19122489 64.61937579 2 68 C-4.49007346 65.14877841 -10.7402517 60.40132711 -14 54 C-15.16140053 48.23236688 -14.62948644 42.46102219 -14.2265625 36.6328125 C-13.88468509 31.58212118 -14.63205344 27.90688218 -16 23.0625 C-16.68162003 19.23162287 -16.73439007 17.0848171 -14.52441406 13.8203125 C-10.15668617 8.70389362 -5.19380014 4.25999781 0 0 Z " fill="#E40C00" transform="translate(320,150)"/>
<path d="M0 0 C5.55001349 4.16251012 9.92986118 7.77904685 14.4375 12.8125 C21.41479022 20.42216188 28.64012142 27.76218404 35.9375 35.0625 C36.47543182 35.60274811 37.01336365 36.14299622 37.56759644 36.69961548 C45.61674994 44.78031387 45.61674994 44.78031387 54.18579102 52.30249023 C56.68802861 54.64377108 58.80623191 57.36747829 61 60 C40.87 60 20.74 60 0 60 C0 40.2 0 20.4 0 0 Z " fill="#EE9EA5" transform="translate(0,308)"/>
<path d="M0 0 C19.8 0 39.6 0 60 0 C60 19.8 60 39.6 60 60 C55.57639838 56.20834147 51.43314376 52.55902163 47.34008789 48.46948242 C46.82212646 47.95327332 46.30416504 47.43706421 45.77050781 46.9052124 C44.08539271 45.22444461 42.40389755 43.54011073 40.72265625 41.85546875 C39.54453373 40.6780207 38.36626286 39.50072105 37.18785095 38.32356262 C34.7329007 35.87007913 32.27974982 33.41481459 29.82788086 30.95825195 C26.67815616 27.80279266 23.5239122 24.65189484 20.36834049 21.50228405 C17.94142906 19.07897374 15.51688894 16.65330227 13.09307671 14.22689247 C11.92994101 13.06308821 10.76605794 11.90003042 9.60142708 10.7377224 C7.98324386 9.12206237 6.36827277 7.50326051 4.75415039 5.88354492 C3.83372452 4.96232346 2.91329865 4.04110199 1.96498108 3.09196472 C0 1 0 1 0 0 Z " fill="#EE9DA4" transform="translate(308,0)"/>
<path d="M0 0 C5.74809342 2.60333653 10.95661541 6.35511283 14 12 C15.62884274 17.75008226 15.4822764 23.73860018 15.35864258 29.66723633 C15.3125647 32.4336154 15.37858271 35.18187014 15.45507812 37.94726562 C15.54322012 52.34168116 15.54322012 52.34168116 9.97050476 58.33522034 C7.76409103 60.39582214 5.45667537 62.24777318 3 64 C0.09456128 62.68623083 -1.96661059 61.27943508 -4.20800781 59.01904297 C-4.80832825 58.41857147 -5.40864868 57.81809998 -6.02716064 57.19943237 C-6.66272888 56.55354156 -7.29829712 55.90765076 -7.953125 55.2421875 C-8.61334656 54.57913605 -9.27356812 53.91608459 -9.95379639 53.23294067 C-12.05727824 51.11828168 -14.15369142 48.99676788 -16.25 46.875 C-17.67662261 45.43834443 -19.10370072 44.00214102 -20.53125 42.56640625 C-24.02613661 39.04949196 -27.51470062 35.52641453 -31 32 C-27.16439367 27.41335656 -23.19361444 23.05345444 -18.9453125 18.84765625 C-18.39890106 18.30265976 -17.85248962 17.75766327 -17.28952026 17.19615173 C-15.57037942 15.48253882 -13.84776796 13.77246556 -12.125 12.0625 C-10.94768362 10.89020796 -9.77059826 9.71768386 -8.59375 8.54492188 C-5.73182511 5.69393018 -2.86678543 2.84610385 0 0 Z " fill="#ED9CA3" transform="translate(354,255)"/>
<path d="M0 0 C4.66874537 3.89976721 9.09127809 7.95214644 13.37109375 12.2734375 C13.93828629 12.84204498 14.50547882 13.41065247 15.08985901 13.99649048 C16.87479913 15.78696236 18.65620256 17.58090484 20.4375 19.375 C21.65796939 20.60049323 22.87867053 21.82575572 24.09960938 23.05078125 C27.06908756 26.03119774 30.03540257 29.01472894 33 32 C32.12848385 33.04458319 31.25253033 34.08546407 30.375 35.125 C29.88773438 35.70507812 29.40046875 36.28515625 28.8984375 36.8828125 C28.27195313 37.58148438 27.64546875 38.28015625 27 39 C26.6019516 39.51495026 26.2039032 40.02990051 25.79379272 40.56045532 C23.68905123 43.04453414 22.07167106 44.74063999 18.84649658 45.5211792 C16.28542993 45.69309764 13.79180849 45.67542384 11.2265625 45.5859375 C9.8409462 45.57320297 9.8409462 45.57320297 8.42733765 45.56021118 C5.49201236 45.5267631 2.55948739 45.45150164 -0.375 45.375 C-2.37105393 45.34488921 -4.36715114 45.31751536 -6.36328125 45.29296875 C-11.24325789 45.22700005 -16.12115506 45.12353912 -21 45 C-21.28987793 44.38415039 -21.57975586 43.76830078 -21.87841797 43.13378906 C-23.25774834 40.50963855 -24.99873554 38.80767528 -27.125 36.75 C-28.21167969 35.69039063 -28.21167969 35.69039063 -29.3203125 34.609375 C-29.87460938 34.07828125 -30.42890625 33.5471875 -31 33 C-29.70280076 30.14220983 -28.3363174 28.08991464 -26.11083984 25.88378906 C-25.5303891 25.30348938 -24.94993835 24.7231897 -24.35189819 24.12530518 C-23.72788116 23.51161072 -23.10386414 22.89791626 -22.4609375 22.265625 C-21.82008209 21.62759949 -21.17922668 20.98957397 -20.51895142 20.33221436 C-18.47562179 18.30005931 -16.42544018 16.27497782 -14.375 14.25 C-12.9865214 12.8715547 -11.5984951 11.49265364 -10.2109375 10.11328125 C-6.81251303 6.73688106 -3.40792746 3.36680712 0 0 Z " fill="#EA434D" transform="translate(218,323)"/>
<path d="M0 0 C32.94135802 -2.26028807 32.94135802 -2.26028807 40.21875 2.89453125 C43.44609348 5.88864304 45.83340182 9.18091168 48 13 C43.97251947 17.83298806 39.75620587 22.38110004 35.2890625 26.80859375 C34.67606293 27.42017838 34.06306335 28.031763 33.43148804 28.66188049 C31.49835436 30.58947559 29.56175013 32.51353928 27.625 34.4375 C26.30315301 35.75432404 24.98153628 37.07137926 23.66015625 38.38867188 C20.44275701 41.59512373 17.22224319 44.79841629 14 48 C13.54005142 47.59882462 13.08010284 47.19764923 12.60621643 46.78431702 C8.82672352 43.49052911 8.82672352 43.49052911 4.80053711 40.51342773 C2.53488207 38.83496115 1.35727018 37.49794945 0 35 C-0.86149139 28.99555027 -0.66051179 23.10906505 -0.4375 17.0625 C-0.40235184 15.40826893 -0.37041897 13.75396623 -0.34179688 12.09960938 C-0.26501748 8.06462611 -0.14443627 4.03310515 0 0 Z " fill="#EA434D" transform="translate(0,0)"/>
<path d="M0 0 C4.78515625 4.00390625 4.78515625 4.00390625 7 6 C7.59159912 6.37825928 8.18319824 6.75651855 8.79272461 7.14624023 C12.59581424 10.00446288 13.86386632 12.06893547 14.56225586 16.84545898 C14.77691205 21.54842263 14.61090956 26.23581067 14.4375 30.9375 C14.40235184 32.59173107 14.37041897 34.24603377 14.34179688 35.90039062 C14.26501748 39.93537389 14.14443627 43.96689485 14 48 C-18.94135802 50.26028807 -18.94135802 50.26028807 -26.21875 45.10546875 C-29.44609348 42.11135696 -31.83340182 38.81908832 -34 35 C-30.73599817 31.73256479 -27.46531857 28.47198874 -24.19012451 25.21577454 C-21.69654437 22.73560005 -19.2056422 20.25274311 -16.71484375 17.76977539 C-15.39866754 16.45866895 -14.0816013 15.14845542 -12.76367188 13.83911133 C-10.85573296 11.94325097 -8.95099731 10.04422383 -7.046875 8.14453125 C-6.45525574 7.55807327 -5.86363647 6.9716153 -5.25408936 6.36738586 C-2.2591503 3.46364323 -2.2591503 3.46364323 0 0 Z " fill="#E9424C" transform="translate(354,320)"/>
<path d="M0 0 C1.72265625 1.4453125 1.72265625 1.4453125 2.72265625 3.4453125 C-1.25689995 1.95112969 -4.9049452 0.0706721 -8.65234375 -1.9296875 C-27.51633065 -11.65860238 -48.89681918 -12.76287441 -69.27734375 -7.5546875 C-73.47262645 -6.20884475 -77.35001063 -4.54555166 -81.27734375 -2.5546875 C-82.24929687 -2.06226562 -83.22125 -1.56984375 -84.22265625 -1.0625 C-104.05219399 9.75831824 -117.15384079 26.25557124 -124.3359375 47.58984375 C-130.55458219 69.34022303 -127.31145338 90.48663592 -117.27734375 110.4453125 C-116.30786198 112.08870232 -115.31425036 113.71861038 -114.27734375 115.3203125 C-113.61734375 116.3515625 -112.95734375 117.3828125 -112.27734375 118.4453125 C-112.60734375 119.1053125 -112.93734375 119.7653125 -113.27734375 120.4453125 C-129.84960442 102.11004537 -135.35162836 80.59922792 -134.27734375 56.4453125 C-132.95299515 38.65054396 -124.95084469 22.71555848 -113.27734375 9.4453125 C-112.61089844 8.68347656 -111.94445312 7.92164062 -111.2578125 7.13671875 C-102.58030345 -2.15256273 -91.15990854 -9.13326804 -79.27734375 -13.5546875 C-78.24222656 -13.9465625 -77.20710938 -14.3384375 -76.140625 -14.7421875 C-49.32131407 -23.39164052 -22.24654623 -15.96997475 0 0 Z " fill="#A7A9AC" transform="translate(235.27734375,118.5546875)"/>
<path d="M0 0 C5.43733055 4.52991796 10.46458931 9.34294216 15.4375 14.375 C16.53481445 15.47908203 16.53481445 15.47908203 17.65429688 16.60546875 C19.43852723 18.40136074 21.22036124 20.19955985 23 22 C19.6542486 25.35924234 16.27723557 28.68242921 12.875 31.984375 C11.4144491 33.41540653 9.95583642 34.84838231 8.49804688 36.28222656 C7.50292223 37.25724112 6.50423641 38.22863486 5.50195312 39.19628906 C-0.42645039 44.92604042 -5.58012476 50.39030523 -9 58 C-10.72526042 56.50260417 -12.45052083 55.00520833 -14.17578125 53.5078125 C-16.13498212 51.8359553 -16.13498212 51.8359553 -19 50 C-18.63648438 49.44054687 -18.27296875 48.88109375 -17.8984375 48.3046875 C-9.27442858 34.55049892 -3.64532541 19.33671604 -1.39453125 3.265625 C-1 1 -1 1 0 0 Z " fill="#AB858A" transform="translate(298,196)"/>
<path d="M0 0 C0.598125 0.78375 1.19625 1.5675 1.8125 2.375 C3.91085249 5.14574323 3.91085249 5.14574323 7 7 C7 7.66 7 8.32 7 9 C7.66 9.33 8.32 9.66 9 10 C8.42894531 10.21374268 7.85789063 10.42748535 7.26953125 10.64770508 C-1.58723646 14.46621811 -7.43060802 20.86426012 -14 27.6875 C-15.14073953 28.85337667 -16.28265921 30.01809986 -17.42578125 31.18164062 C-19.50345046 33.29987738 -21.57451842 35.42407383 -23.63671875 37.55737305 C-25.08000105 39.04911265 -26.53228906 40.53228906 -28 42 C-35.26 34.74 -42.52 27.48 -50 20 C-47.00307416 18.00204944 -44.78596364 17.46454481 -41.30078125 16.80908203 C-26.5742192 14.03066232 -12.43608372 8.43991286 0 0 Z " fill="#AB8489" transform="translate(246,279)"/>
<path d="M0 0 C0.33 0 0.66 0 1 0 C1.08636719 0.8971875 1.17273438 1.794375 1.26171875 2.71875 C3.32721497 21.06187235 9.66450922 38.07475102 19 54 C16.69 55.65 14.38 57.3 12 59 C1.11 48.11 -9.78 37.22 -21 26 C-18.76399374 22.2733229 -17.21826423 19.96297509 -14.27734375 17.01171875 C-13.57416016 16.30595703 -12.87097656 15.60019531 -12.14648438 14.87304688 C-11.41751953 14.15181641 -10.68855469 13.43058594 -9.9375 12.6875 C-9.20466797 11.94693359 -8.47183594 11.20636719 -7.71679688 10.44335938 C-7.01490234 9.74404297 -6.31300781 9.04472656 -5.58984375 8.32421875 C-4.94909912 7.68572998 -4.30835449 7.04724121 -3.64819336 6.3894043 C-2 5 -2 5 0 5 C0 3.35 0 1.7 0 0 Z " fill="#E9424C" transform="translate(69,193)"/>
<path d="M0 0 C2.95265112 1.32994383 5.02350216 2.77779316 7.29980469 5.07275391 C8.23031647 6.00349228 8.23031647 6.00349228 9.17962646 6.95303345 C9.83706848 7.62079803 10.4945105 8.28856262 11.171875 8.9765625 C12.1955014 10.00443375 12.1955014 10.00443375 13.23980713 11.05307007 C15.41461598 13.23905845 17.58236072 15.43190429 19.75 17.625 C21.2247999 19.10983255 22.70005506 20.59421306 24.17578125 22.078125 C27.78915448 25.7135291 31.39620853 29.35509824 35 33 C33.35 35.31 31.7 37.62 30 40 C29.05640625 39.48050781 28.1128125 38.96101563 27.140625 38.42578125 C10.60838068 29.40228337 -5.20408009 23.85914143 -24 22 C-24 21.67 -24 21.34 -24 21 C-22.35 21 -20.7 21 -19 21 C-18.62609131 20.13713379 -18.62609131 20.13713379 -18.24462891 19.25683594 C-16.82126077 16.67589928 -15.18451214 14.95787763 -13.0859375 12.890625 C-12.32539063 12.13652344 -11.56484375 11.38242187 -10.78125 10.60546875 C-9.9871875 9.82816406 -9.193125 9.05085938 -8.375 8.25 C-7.17230469 7.06083984 -7.17230469 7.06083984 -5.9453125 5.84765625 C-3.96797154 3.89385507 -1.98611091 1.94487897 0 0 Z " fill="#E9424C" transform="translate(217,48)"/>
<path d="M0 0 C5.2005716 4.33830066 10.01072917 8.9157538 14.75 13.75 C16.05491935 15.08045594 17.36211971 16.40867948 18.671875 17.734375 C19.2400293 18.31413086 19.80818359 18.89388672 20.39355469 19.49121094 C22.13239953 21.2076466 22.13239953 21.2076466 25 23 C24.05382812 23.07476562 23.10765625 23.14953125 22.1328125 23.2265625 C6.19638677 24.71652034 -7.75180283 29.919782 -21.83984375 37.36328125 C-25 39 -25 39 -28 40 C-29.65 38.02 -31.3 36.04 -33 34 C-32.60132217 33.60354279 -32.20264435 33.20708557 -31.79188538 32.7986145 C-27.65260556 28.68141389 -23.51681485 24.56073253 -19.38305664 20.43798828 C-17.83870708 18.89867553 -16.29346229 17.3602604 -14.74731445 15.82275391 C-12.5284145 13.61594799 -10.31272667 11.40596143 -8.09765625 9.1953125 C-7.4028566 8.50567413 -6.70805695 7.81603577 -5.99220276 7.10549927 C-5.35161423 6.46498627 -4.7110257 5.82447327 -4.05102539 5.16455078 C-3.48476944 4.60051544 -2.91851349 4.0364801 -2.33509827 3.45535278 C-0.89527342 2.0197876 -0.89527342 2.0197876 0 0 Z " fill="#ED9CA3" transform="translate(149,47)"/>
<path d="M0 0 C2.5 2.25 2.5 2.25 5 5 C5 9.69847545 3.39284317 12.53835477 1.25 16.5625 C-5.01463406 28.7265714 -9.44686268 41.33239162 -11 55 C-14 55 -14 55 -16.17651367 53.1640625 C-16.99869385 52.32617188 -17.82087402 51.48828125 -18.66796875 50.625 C-19.56064453 49.72265625 -20.45332031 48.8203125 -21.37304688 47.890625 C-22.31136157 46.9272427 -23.2495105 45.96369892 -24.1875 45 C-25.13667769 44.03577654 -26.08653956 43.07222608 -27.03710938 42.109375 C-29.36490319 39.74613254 -31.68543133 37.37618518 -34 35 C-30.73599817 31.73256479 -27.46531857 28.47198874 -24.19012451 25.21577454 C-21.69654437 22.73560005 -19.2056422 20.25274311 -16.71484375 17.76977539 C-15.39866754 16.45866895 -14.0816013 15.14845542 -12.76367188 13.83911133 C-10.85573296 11.94325097 -8.95099731 10.04422383 -7.046875 8.14453125 C-6.45525574 7.55807327 -5.86363647 6.9716153 -5.25408936 6.36738586 C-2.2591503 3.46364323 -2.2591503 3.46364323 0 0 Z " fill="#ED9CA2" transform="translate(81,115)"/>
<path d="M0 0 C3.59905908 0.55550695 4.99909799 1.74887248 7.25 4.5625 C8.03117187 5.52349609 8.03117187 5.52349609 8.828125 6.50390625 C9.21484375 6.99761719 9.6015625 7.49132812 10 8 C7.2929078 11.21130648 4.58159665 14.41869602 1.859375 17.6171875 C0.27756481 19.47832122 -1.27560632 21.34630533 -2.796875 23.2578125 C-6.45383755 27.76303956 -10.6642557 31.33766216 -15.1875 34.9375 C-15.79440674 35.42299316 -16.40131348 35.90848633 -17.02661133 36.40869141 C-19.9873454 38.70279993 -22.33363083 40.26433862 -26 41 C-26 40.34 -26 39.68 -26 39 C-26.928125 38.566875 -26.928125 38.566875 -27.875 38.125 C-30 37 -30 37 -32 35 C-31.8194439 32.30260132 -31.26531764 31.24839533 -29.28515625 29.39453125 C-28.55167969 28.87246094 -27.81820312 28.35039062 -27.0625 27.8125 C-16.34951216 19.81595915 -7.96019557 10.70509059 0 0 Z " fill="#A53E39" transform="translate(279,247)"/>
<path d="M0 0 C0.66 0 1.32 0 2 0 C3.65807131 2.04909726 5.18384969 4.0910918 6.6875 6.25 C7.13448242 6.88752197 7.58146484 7.52504395 8.04199219 8.18188477 C17.39504243 21.67599297 24.48145344 35.87527008 28 52 C28.20496094 52.93328125 28.40992188 53.8665625 28.62109375 54.828125 C30.53911467 65.14575477 30.1926526 75.55081921 30 86 C27 86 27 86 23.859375 83.75 C19.57044444 79.22250099 20.19610634 73.91384382 20.25 68 C20.21158197 65.73819937 20.16865018 63.47647069 20.12109375 61.21484375 C20.1041748 60.13444824 20.08725586 59.05405273 20.06982422 57.94091797 C19.6227801 39.11191969 12.60307535 18.76170278 1.23046875 3.6484375 C0 2 0 2 0 0 Z " fill="#A9575C" transform="translate(277,116)"/>
<path d="M0 0 C0.91265625 0.51046875 0.91265625 0.51046875 1.84375 1.03125 C19.76689084 11.03965349 19.76689084 11.03965349 39 18 C40.546875 18.42925781 40.546875 18.42925781 42.125 18.8671875 C48.41887837 20.36913575 54.25511174 21.06786156 60.71484375 21.16015625 C61.91230225 21.17925049 63.10976074 21.19834473 64.34350586 21.21801758 C66.74399682 21.23901406 69.14501988 21.22815781 71.54516602 21.18237305 C77.33965944 21.21781975 81.04988455 21.29451503 85.3125 25.484375 C88 28.67130751 88 28.67130751 88 30 C54.99975159 30.77577437 29.19398453 24.62990285 3 4 C2.01 3.34 1.02 2.68 0 2 C0 1.34 0 0.68 0 0 Z " fill="#A95960" transform="translate(115,276)"/>
<path d="M0 0 C3.52564829 1.5060077 5.79532278 3.54742795 8.49316406 6.25024414 C9.37377502 7.12777847 10.25438599 8.00531281 11.16168213 8.90943909 C12.11317825 9.86783099 13.0644882 10.82640775 14.015625 11.78515625 C14.99603394 12.76675771 15.97681328 13.74798934 16.95794678 14.72886658 C19.00860901 16.78109024 21.05587482 18.83662265 23.10058594 20.89477539 C25.72741757 23.53865244 28.36084046 26.17584248 30.99658585 28.81083012 C33.01967516 30.83419062 35.04015354 32.86014094 37.05974579 34.8869915 C38.03043014 35.86086653 39.00172887 36.83412958 39.97364044 37.80677986 C41.32642408 39.16171965 42.67551821 40.5203401 44.02441406 41.87915039 C45.17879974 43.03925377 45.17879974 43.03925377 46.35650635 44.22279358 C48 46 48 46 48 47 C39.42 47 30.84 47 22 47 C23.98 44.69 25.96 42.38 28 40 C29.65 38.02 31.3 36.04 33 34 C22.77 23.77 12.54 13.54 2 3 C-2.49743967 6.85494829 -6.78742339 10.64599107 -10.93359375 14.8359375 C-11.4563942 15.36015289 -11.97919464 15.88436829 -12.51783752 16.42446899 C-14.16012345 18.0722787 -15.7988665 19.72355901 -17.4375 21.375 C-18.56161467 22.50413955 -19.68596174 23.63304778 -20.81054688 24.76171875 C-23.54305235 27.50515188 -26.27239009 30.25169985 -29 33 C-26.88908939 37.60402394 -24.15015979 41.05880271 -20 44 C-16.76059453 44.95138715 -13.70736745 44.95798874 -10.34765625 44.90234375 C-8.99745644 44.92078087 -8.99745644 44.92078087 -7.61997986 44.93959045 C-4.76664476 44.97118931 -1.91591307 44.95508244 0.9375 44.9375 C2.88088327 44.95061674 4.8242481 44.96686047 6.76757812 44.98632812 C11.51227043 45.02706918 16.25521742 45.02505433 21 45 C21 45.33 21 45.66 21 46 C15.23873468 46.29934632 9.48209706 46.51557278 3.71484375 46.65917969 C1.75896288 46.71909303 -0.19639043 46.80066535 -2.15039062 46.90527344 C-19.28354001 47.79871988 -19.28354001 47.79871988 -25.03710938 43.27539062 C-28.07133899 40.44682819 -30.58851113 37.36848918 -33 34 C-29.03627475 29.24914133 -24.90205218 24.76386888 -20.5078125 20.41015625 C-19.91700897 19.82076767 -19.32620544 19.23137909 -18.71749878 18.62413025 C-16.85569596 16.76786273 -14.99042255 14.91512915 -13.125 13.0625 C-11.85132989 11.79385328 -10.57789029 10.5249751 -9.3046875 9.25585938 C-6.20577957 6.16789446 -3.10375699 3.08309071 0 0 Z " fill="#E93A43" transform="translate(217,321)"/>
<path d="M0 0 C1.12120157 0.9550972 2.24156401 1.91117951 3.36157227 2.86767578 C3.98556412 3.3999881 4.60955597 3.93230042 5.25245667 4.48074341 C7.23224136 6.20190298 9.10154154 8.001573 10.9375 9.875 C11.81728516 10.76832031 11.81728516 10.76832031 12.71484375 11.6796875 C13.35099609 12.33324219 13.35099609 12.33324219 14 13 C13.67 13.66 13.34 14.32 13 15 C9.37 11.37 5.74 7.74 2 4 C-1.19771119 5.5988556 -2.66449155 6.41598693 -5.02441406 8.79736328 C-5.58469299 9.35779327 -6.14497192 9.91822327 -6.722229 10.49563599 C-7.31404968 11.09777924 -7.90587036 11.69992249 -8.515625 12.3203125 C-9.4393692 13.24830154 -9.4393692 13.24830154 -10.3817749 14.19503784 C-12.34260336 16.16703814 -14.29635301 18.14588737 -16.25 20.125 C-17.58026799 21.46530164 -18.910992 22.80515083 -20.2421875 24.14453125 C-23.5001015 27.42446589 -26.75168533 30.71055942 -30 34 C-26.16439367 38.58664344 -22.19361444 42.94654556 -17.9453125 47.15234375 C-17.39890106 47.69734024 -16.85248962 48.24233673 -16.28952026 48.80384827 C-14.57037942 50.51746118 -12.84776796 52.22753444 -11.125 53.9375 C-9.94768362 55.10979204 -8.77059826 56.28231614 -7.59375 57.45507812 C-4.73182511 60.30606982 -1.86678543 63.15389615 1 66 C4.40923617 64.39717343 6.57505507 62.60997987 9.1875 59.875 C10.44175237 58.56722665 11.70840483 57.270906 13 56 C13.33 56 13.66 56 14 56 C14 64.25 14 72.5 14 81 C6.125 74.25 6.125 74.25 2.53344727 70.64697266 C1.7331459 69.84659576 0.93284454 69.04621887 0.10829163 68.22158813 C-1.14994164 66.95561295 -1.14994164 66.95561295 -2.43359375 65.6640625 C-3.31153091 64.78471039 -4.18946808 63.90535828 -5.0940094 62.99935913 C-7.87754412 60.21025942 -10.65756769 57.41768982 -13.4375 54.625 C-15.33216665 52.7247458 -17.2275963 50.82525347 -19.12304688 48.92578125 C-23.75135161 44.28649396 -28.37678421 39.64435833 -33 35 C-31.67005617 32.04734888 -30.22220684 29.97649784 -27.92724609 27.70019531 C-27.30675385 27.07985413 -26.6862616 26.45951294 -26.04696655 25.82037354 C-25.37920197 25.16293152 -24.71143738 24.5054895 -24.0234375 23.828125 C-23.33819 23.1457074 -22.6529425 22.46328979 -21.94692993 21.76019287 C-19.76094155 19.58538402 -17.56809571 17.41763928 -15.375 15.25 C-13.89016745 13.7752001 -12.40578694 12.29994494 -10.921875 10.82421875 C-7.2864709 7.21084552 -3.64490176 3.60379147 0 0 Z " fill="#EEA3AA" transform="translate(354,252)"/>
<path d="M0 0 C0.66 0.33 1.32 0.66 2 1 C-6.33333333 9.33333333 -14.66666667 17.66666667 -23 26 C-25.17277714 23.88094537 -27.33826908 21.75527122 -29.5 19.625 C-30.12003906 19.02171875 -30.74007812 18.4184375 -31.37890625 17.796875 C-31.96542969 17.21679688 -32.55195313 16.63671875 -33.15625 16.0390625 C-33.97319336 15.23782959 -33.97319336 15.23782959 -34.80664062 14.42041016 C-36 13 -36 13 -36 11 C-34.90945312 10.79246094 -33.81890625 10.58492188 -32.6953125 10.37109375 C-23.26896097 8.47718122 -14.52930785 5.95115957 -5.66455078 2.19897461 C-3.79615143 1.41692746 -1.8999662 0.70188483 0 0 Z " fill="#ED9AA1" transform="translate(241,295)"/>
<path d="M0 0 C4.00374431 1.83692389 6.71957934 4.49117916 9.75 7.625 C10.25660156 8.140625 10.76320313 8.65625 11.28515625 9.1875 C12.52803902 10.45383339 13.76465276 11.7263144 15 13 C6.66666667 21.33333333 -1.66666667 29.66666667 -10 38 C-10.33 37.34 -10.66 36.68 -11 36 C-10.18703138 34.05621037 -9.29542976 32.14526916 -8.375 30.25 C-3.93895518 20.64859008 -2.087134 10.31240304 0 0 Z " fill="#ED9BA2" transform="translate(306,205)"/>
<path d="M0 0 C3.27634388 3.16911808 6.25247595 6.44488249 9.14941406 9.96166992 C14.31266634 16.21925148 19.46748691 21.39335544 26.015625 26.23046875 C26.67046875 26.81441406 27.3253125 27.39835937 28 28 C28 28.99 28 29.98 28 31 C29.32 31.66 30.64 32.32 32 33 C32 34.32 32 35.64 32 37 C30.68 37.66 29.36 38.32 28 39 C17.11 28.11 6.22 17.22 -5 6 C-3 2 -3 2 0 0 Z " fill="#E30D04" transform="translate(87,247)"/>
<path d="M0 0 C2.95265112 1.32994383 5.02350216 2.77779316 7.29980469 5.07275391 C7.92014587 5.69324615 8.54048706 6.3137384 9.17962646 6.95303345 C10.16578949 7.95468033 10.16578949 7.95468033 11.171875 8.9765625 C11.8542926 9.66181 12.53671021 10.3470575 13.23980713 11.05307007 C15.41461598 13.23905845 17.58236072 15.43190429 19.75 17.625 C21.2247999 19.10983255 22.70005506 20.59421306 24.17578125 22.078125 C27.78915448 25.7135291 31.39620853 29.35509824 35 33 C34.34 34.32 33.68 35.64 33 37 C31.68 37 30.36 37 29 37 C28.67 36.01 28.34 35.02 28 34 C27.10474609 33.81244141 27.10474609 33.81244141 26.19140625 33.62109375 C22.95819082 32.70472788 21.93173951 30.7202435 19.9375 28.0625 C13.11557977 19.42289707 4.98179855 12.33100986 -4 6 C-1.125 1.125 -1.125 1.125 0 0 Z " fill="#E30C04" transform="translate(251,82)"/>
<path d="M0 0 C4.5 2.25 4.5 2.25 6 6 C4.94425781 6.73089844 4.94425781 6.73089844 3.8671875 7.4765625 C-8.17601346 16.12376945 -19.2004647 26.2744424 -27 39 C-30.78496138 37.48601545 -31.0072198 36.9855604 -33 33 C-22.11 22.11 -11.22 11.22 0 0 Z " fill="#E41007" transform="translate(115,82)"/>
<path d="M0 0 C4.00139013 -0.17423988 8.00128646 -0.30060848 12.00561523 -0.38452148 C13.3647308 -0.41952778 14.72358647 -0.46715338 16.08178711 -0.52807617 C27.36059366 -1.02098031 27.36059366 -1.02098031 31.49560547 1.55419922 C33.25065266 3.28448384 34.69740976 4.91098789 36 7 C36 7.33 36 7.66 36 8 C32.0625648 8.05893685 28.12524573 8.09390669 24.1875 8.125 C22.53717773 8.15013672 22.53717773 8.15013672 20.85351562 8.17578125 C13.67463138 8.21813455 7.00873305 7.56258545 0 6 C0.99 4.68 1.98 3.36 3 2 C2.01 1.34 1.02 0.68 0 0 Z " fill="#A5403B" transform="translate(167,298)"/>
<path d="M0 0 C0.66 0.33 1.32 0.66 2 1 C5.12628657 11.8841088 4.20632252 23.80938372 4 35 C1 35 1 35 -2.1796875 32.7890625 C-5.11955766 29.68900128 -5.43565671 27.30377118 -5.5078125 23.0859375 C-5.41255336 20.8473477 -5.28390867 18.60997352 -5.125 16.375 C-5.08375 15.24320313 -5.0425 14.11140625 -5 12.9453125 C-4.54663494 4.62704922 -4.54663494 4.62704922 -1.94873047 1.64697266 C-1.30564941 1.10347168 -0.66256836 0.5599707 0 0 Z " fill="#A73C36" transform="translate(303,167)"/>
<path d="M0 0 C0.99 0.99 1.98 1.98 3 3 C0.2929078 6.21130648 -2.41840335 9.41869602 -5.140625 12.6171875 C-6.72243519 14.47832122 -8.27560632 16.34630533 -9.796875 18.2578125 C-13.45383755 22.76303956 -17.6642557 26.33766216 -22.1875 29.9375 C-22.79440674 30.42299316 -23.40131348 30.90848633 -24.02661133 31.40869141 C-26.9873454 33.70279993 -29.33363083 35.26433862 -33 36 C-32.4165115 32.62704442 -31.36898894 30.99994201 -28.94897461 28.60839844 C-28.30838608 27.9680365 -27.66779755 27.32767456 -27.00779724 26.66790771 C-26.31299759 25.98859192 -25.61819794 25.30927612 -24.90234375 24.609375 C-24.19348526 23.90476135 -23.48462677 23.20014771 -22.75428772 22.47418213 C-20.4889672 20.22565215 -18.21343792 17.98777762 -15.9375 15.75 C-14.39970665 14.22725292 -12.86258869 12.70382346 -11.32617188 11.1796875 C-7.55858198 7.4451719 -3.78255735 3.7193515 0 0 Z " fill="#A9585F" transform="translate(286,252)"/>
<path d="M0 0 C4.61586002 3.95645145 8.80181 7.69941512 13 12 C11.53417985 15.42280517 9.61937745 17.56480483 6.9375 20.125 C4.08428067 22.77905 4.08428067 22.77905 2 26 C1.34 26 0.68 26 0 26 C0 17.42 0 8.84 0 0 Z " fill="#E50E05" transform="translate(0,239)"/>
<path d="M0 0 C3.87939509 1.58620127 6.33361087 4.09920987 9.25 7.0625 C10.14203125 7.96097656 11.0340625 8.85945313 11.953125 9.78515625 C14 12 14 12 14 13 C5.42 13 -3.16 13 -12 13 C-8.04354855 8.38413998 -4.30058488 4.19819 0 0 Z " fill="#E40B02" transform="translate(251,355)"/>
<path d="M0 0 C3.87939509 1.58620127 6.33361087 4.09920987 9.25 7.0625 C10.14203125 7.96097656 11.0340625 8.85945313 11.953125 9.78515625 C14 12 14 12 14 13 C5.42 13 -3.16 13 -12 13 C-8.04354855 8.38413998 -4.30058488 4.19819 0 0 Z " fill="#E40C03" transform="translate(115,355)"/>
<path d="M0 0 C3.87939509 1.58620127 6.33361087 4.09920987 9.25 7.0625 C10.14203125 7.96097656 11.0340625 8.85945313 11.953125 9.78515625 C14 12 14 12 14 13 C5.42 13 -3.16 13 -12 13 C-8.04354855 8.38413998 -4.30058488 4.19819 0 0 Z " fill="#FEFAFB" transform="translate(183,355)"/>
<path d="M0 0 C0 8.58 0 17.16 0 26 C-4.61586002 22.04354855 -8.80181 18.30058488 -13 14 C-11.41379873 10.12060491 -8.90079013 7.66638913 -5.9375 4.75 C-5.03902344 3.85796875 -4.14054687 2.9659375 -3.21484375 2.046875 C-1 0 -1 0 0 0 Z " fill="#FEF8F8" transform="translate(368,171)"/>
<path d="M0 0 C4.61586002 3.95645145 8.80181 7.69941512 13 12 C11.41379873 15.87939509 8.90079013 18.33361087 5.9375 21.25 C5.03902344 22.14203125 4.14054688 23.0340625 3.21484375 23.953125 C1 26 1 26 0 26 C0 17.42 0 8.84 0 0 Z " fill="#FEFBFC" transform="translate(0,171)"/>
<path d="M0 0 C0 8.58 0 17.16 0 26 C-4.61586002 22.04354855 -8.80181 18.30058488 -13 14 C-11.41379873 10.12060491 -8.90079013 7.66638913 -5.9375 4.75 C-5.03902344 3.85796875 -4.14054687 2.9659375 -3.21484375 2.046875 C-1 0 -1 0 0 0 Z " fill="#E40B03" transform="translate(368,103)"/>
<path d="M0 0 C4.61586002 3.95645145 8.80181 7.69941512 13 12 C11.41379873 15.87939509 8.90079013 18.33361087 5.9375 21.25 C5.03902344 22.14203125 4.14054688 23.0340625 3.21484375 23.953125 C1 26 1 26 0 26 C0 17.42 0 8.84 0 0 Z " fill="#E40D04" transform="translate(0,103)"/>
<path d="M0 0 C8.58 0 17.16 0 26 0 C22.04354855 4.61586002 18.30058488 8.80181 14 13 C10.12060491 11.41379873 7.66638913 8.90079013 4.75 5.9375 C3.85796875 5.03902344 2.9659375 4.14054688 2.046875 3.21484375 C0 1 0 1 0 0 Z " fill="#E40C02" transform="translate(239,0)"/>
<path d="M0 0 C8.58 0 17.16 0 26 0 C22.04354855 4.61586002 18.30058488 8.80181 14 13 C10.12060491 11.41379873 7.66638913 8.90079013 4.75 5.9375 C3.85796875 5.03902344 2.9659375 4.14054688 2.046875 3.21484375 C0 1 0 1 0 0 Z " fill="#E40B02" transform="translate(103,0)"/>
<path d="M0 0 C8.58 0 17.16 0 26 0 C22.04354855 4.61586002 18.30058488 8.80181 14 13 C10.12060491 11.41379873 7.66638913 8.90079013 4.75 5.9375 C3.85796875 5.03902344 2.9659375 4.14054688 2.046875 3.21484375 C0 1 0 1 0 0 Z " fill="#FEF9F9" transform="translate(171,0)"/>
<path d="M0 0 C3.84098477 2.11492945 6.7439943 4.50051824 9.8125 7.625 C10.60269531 8.42164063 11.39289062 9.21828125 12.20703125 10.0390625 C14 12 14 12 14 13 C5.42 13 -3.16 13 -12 13 C-8.04354855 8.38413998 -4.30058488 4.19819 0 0 Z " fill="#FEF8F8" transform="translate(47,355)"/>
<path d="M0 0 C4.61586002 3.95645145 8.80181 7.69941512 13 12 C11.46781315 15.63061667 9.2816856 17.9863773 6.5 20.75 C5.7059375 21.54921875 4.911875 22.3484375 4.09375 23.171875 C2 25 2 25 0 25 C0 16.75 0 8.5 0 0 Z " fill="#FEFBFB" transform="translate(0,35)"/>
<path d="M0 0 C8.25 0 16.5 0 25 0 C23.07859132 3.84281736 21.4073184 5.80431927 18.375 8.75 C17.55773437 9.54921875 16.74046875 10.3484375 15.8984375 11.171875 C15.27195312 11.77515625 14.64546875 12.3784375 14 13 C10.12060491 11.41379873 7.66638913 8.90079013 4.75 5.9375 C3.85796875 5.03902344 2.9659375 4.14054688 2.046875 3.21484375 C0 1 0 1 0 0 Z " fill="#FEFBFB" transform="translate(35,0)"/>
<path d="M0 0 C9 6.75 9 6.75 13 11 C11.41379873 14.87939509 8.90079013 17.33361087 5.9375 20.25 C5.03902344 21.14203125 4.14054688 22.0340625 3.21484375 22.953125 C1 25 1 25 0 25 C0 16.75 0 8.5 0 0 Z " fill="#FEFAFA" transform="translate(0,308)"/>
<path d="M0 0 C8.25 0 16.5 0 25 0 C23.02 2.31 21.04 4.62 19 7 C17.32976457 8.99702063 15.66185417 10.99599938 14 13 C10.12060491 11.41379873 7.66638913 8.90079013 4.75 5.9375 C3.85796875 5.03902344 2.9659375 4.14054688 2.046875 3.21484375 C0 1 0 1 0 0 Z " fill="#FEFEFE" transform="translate(308,0)"/>
<path d="M0 0 C1.04796218 0.84643099 2.08792692 1.70276192 3.125 2.5625 C3.70507812 3.03816406 4.28515625 3.51382812 4.8828125 4.00390625 C7.82159088 6.77459952 10.37148276 9.93339656 13 13 C4.75 13 -3.5 13 -12 13 C-8.04354855 8.38413998 -4.30058488 4.19819 0 0 Z " fill="#FFFFFF" transform="translate(320,355)"/>
<path d="M0 0 C0 8.25 0 16.5 0 25 C-5.03219988 20.68668581 -8.91673535 16.97959104 -13 12 C-11.0238076 9.99698146 -9.04425526 7.99750133 -7.0625 6 C-6.49853516 5.42765625 -5.93457031 4.8553125 -5.35351562 4.265625 C-1.11328125 0 -1.11328125 0 0 0 Z " fill="#FEFEFE" transform="translate(368,308)"/>
<path d="M0 0 C0 8.25 0 16.5 0 25 C-5.03219988 20.68668581 -8.91673535 16.97959104 -13 12 C-11.0238076 9.99698146 -9.04425526 7.99750133 -7.0625 6 C-6.49853516 5.42765625 -5.93457031 4.8553125 -5.35351562 4.265625 C-1.11328125 0 -1.11328125 0 0 0 Z " fill="#FEFEFE" transform="translate(368,35)"/>
<path d="M0 0 C3.30456114 1.65228057 4.83272811 2.58545539 7.29980469 5.07275391 C7.92014587 5.69324615 8.54048706 6.3137384 9.17962646 6.95303345 C9.83706848 7.62079803 10.4945105 8.28856262 11.171875 8.9765625 C12.1955014 10.00443375 12.1955014 10.00443375 13.23980713 11.05307007 C15.41461598 13.23905845 17.58236072 15.43190429 19.75 17.625 C21.2247999 19.10983255 22.70005506 20.59421306 24.17578125 22.078125 C27.78915448 25.7135291 31.39620853 29.35509824 35 33 C34.505 33.99 34.505 33.99 34 35 C23.44 24.44 12.88 13.88 2 3 C-2.6525442 6.98789503 -7.07770099 10.93843777 -11.37109375 15.2734375 C-11.93828629 15.84204498 -12.50547882 16.41065247 -13.08985901 16.99649048 C-14.87479913 18.78696236 -16.65620256 20.58090484 -18.4375 22.375 C-19.65796939 23.60049323 -20.87867053 24.82575572 -22.09960938 26.05078125 C-25.06908756 29.03119774 -28.03540257 32.01472894 -31 35 C-31.66 34.34 -32.32 33.68 -33 33 C-22.11 22.11 -11.22 11.22 0 0 Z " fill="#EEA4AB" transform="translate(285,321)"/>
<path d="M0 0 C0.66 0.33 1.32 0.66 2 1 C-7.9 10.9 -17.8 20.8 -28 31 C-26.318571 34.362858 -25.47234053 35.72842009 -22.875 38.125 C-21.2421875 39.6328125 -21.2421875 39.6328125 -20 41 C-20 41.66 -20 42.32 -20 43 C-19.43829102 43.2357373 -18.87658203 43.47147461 -18.29785156 43.71435547 C-15.45664964 45.30400372 -13.52192715 47.25343276 -11.234375 49.5703125 C-9.90019531 50.91416016 -9.90019531 50.91416016 -8.5390625 52.28515625 C-7.61867188 53.22230469 -6.69828125 54.15945313 -5.75 55.125 C-4.80515144 56.07988637 -3.85984367 57.03431859 -2.9140625 57.98828125 C-0.60481662 60.32109087 1.69963203 62.65844086 4 65 C3.01 65.33 2.02 65.66 1 66 C-3.59300249 61.533502 -8.16650115 57.04772684 -12.72680664 52.54785156 C-14.28127171 51.0185712 -15.84018906 49.49380302 -17.40356445 47.97363281 C-19.64672554 45.79094388 -21.87350791 43.59266357 -24.09765625 41.390625 C-24.80277847 40.7113092 -25.5079007 40.03199341 -26.23439026 39.33209229 C-26.87512985 38.69173035 -27.51586945 38.05136841 -28.17602539 37.39160156 C-29.03207115 36.55221039 -29.03207115 36.55221039 -29.90541077 35.69586182 C-31 34 -31 34 -30.85571289 31.98852539 C-29.89388078 29.7533977 -28.86130205 28.49902629 -27.13256836 26.79199219 C-26.53202133 26.19167175 -25.9314743 25.59135132 -25.31272888 24.97283936 C-24.66167679 24.33727112 -24.01062469 23.70170288 -23.33984375 23.046875 C-22.67537735 22.38665344 -22.01091095 21.72643188 -21.3263092 21.04620361 C-19.20364437 18.9403236 -17.07078395 16.84511672 -14.9375 14.75 C-13.49606066 13.32360768 -12.05529691 11.8965323 -10.61523438 10.46875 C-7.08461168 6.97119406 -3.54480947 3.48317435 0 0 Z " fill="#E51915" transform="translate(45,288)"/>
<path d="M0 0 C0.33 0 0.66 0 1 0 C1 5.94 1 11.88 1 18 C-4.94 18 -10.88 18 -17 18 C-14 16 -14 16 -10.625 14.25 C-5.67439708 11.42407444 -2.78273744 8.01275343 -0.6875 2.625 C-0.460625 1.75875 -0.23375 0.8925 0 0 Z " fill="#FEF6F6" transform="translate(367,350)"/>
<path d="M0 0 C2 3 2 3 3.625 6.3125 C6.11692773 10.7509524 9.82750111 13.23261367 14 16 C14.99 16.66 15.98 17.32 17 18 C11.39 18 5.78 18 0 18 C0 12.06 0 6.12 0 0 Z " fill="#FEFCFC" transform="translate(0,350)"/>
<path d="M0 0 C5.94 0 11.88 0 18 0 C18 5.61 18 11.22 18 17 C16.91125755 15.36688633 15.8231452 13.73334895 14.73828125 12.09765625 C11.29918485 7.18869947 8.3740175 4.63631047 3 2 C2.01 1.34 1.02 0.68 0 0 Z " fill="#FEFBFB" transform="translate(350,0)"/>
<path d="M0 0 C5.61 0 11.22 0 17 0 C16.01 0.66 15.02 1.32 14 2 C8.8944333 5.48059168 5.14933934 8.54922037 2 14 C1.34 14.99 0.68 15.98 0 17 C0 11.39 0 5.78 0 0 Z " fill="#FEFBFC" transform="translate(0,0)"/>
<path d="M0 0 C0.66 0.66 1.32 1.32 2 2 C-8.56 12.56 -19.12 23.12 -30 34 C-28.02 36.31 -26.04 38.62 -24 41 C-22.65807132 42.65975389 -21.32090525 44.32346641 -20 46 C-23 46 -23 46 -25.69921875 43.59375 C-26.70302243 42.5700032 -27.69885649 41.5383946 -28.6875 40.5 C-29.19861328 39.97535156 -29.70972656 39.45070313 -30.23632812 38.91015625 C-31.49772708 37.61339096 -32.74977212 36.30753883 -34 35 C-30.73599817 31.73256479 -27.46531857 28.47198874 -24.19012451 25.21577454 C-21.69654437 22.73560005 -19.2056422 20.25274311 -16.71484375 17.76977539 C-15.39866754 16.45866895 -14.0816013 15.14845542 -12.76367188 13.83911133 C-10.85573296 11.94325097 -8.95099731 10.04422383 -7.046875 8.14453125 C-6.45525574 7.55807327 -5.86363647 6.9716153 -5.25408936 6.36738586 C-2.2591503 3.46364323 -2.2591503 3.46364323 0 0 Z " fill="#EA4A55" transform="translate(354,320)"/>
<path d="M0 0 C2.80969467 1.28022875 4.8539238 2.60714129 7.02441406 4.79736328 C7.86483246 5.63800827 7.86483246 5.63800827 8.722229 6.49563599 C9.31404968 7.09777924 9.90587036 7.69992249 10.515625 8.3203125 C11.13145447 8.93897186 11.74728394 9.55763123 12.3817749 10.19503784 C14.34260336 12.16703814 16.29635301 14.14588737 18.25 16.125 C19.58026799 17.46530164 20.910992 18.80515083 22.2421875 20.14453125 C25.5001015 23.42446589 28.75168533 26.71055942 32 30 C31.34 30.66 30.68 31.32 30 32 C25.72119773 27.77051017 21.44891021 23.53458815 17.18261719 19.29248047 C15.72932827 17.84927028 14.2742523 16.40785736 12.81738281 14.96826172 C10.72773165 12.90277659 8.64452092 10.83098514 6.5625 8.7578125 C5.90628662 8.11192169 5.25007324 7.46603088 4.57397461 6.80056763 C3.97335205 6.20009613 3.37272949 5.59962463 2.75390625 4.98095703 C2.22095947 4.45245148 1.6880127 3.92394592 1.13891602 3.37942505 C0 2 0 2 0 0 Z " fill="#EB4E57" transform="translate(255,288)"/>
<path d="M0 0 C0.59683594 0.32871094 1.19367188 0.65742188 1.80859375 0.99609375 C10.4904545 5.75628189 19.24286895 10.38017705 28 15 C25 16 25 16 22 17 C19.64764168 15.72966673 17.51582005 14.43109397 15.3125 12.9375 C14.68907715 12.5242749 14.0656543 12.1110498 13.42333984 11.68530273 C2.58317945 4.44680041 2.58317945 4.44680041 0 2 C0 1.34 0 0.68 0 0 Z " fill="#A7565D" transform="translate(115,276)"/>
<path d="M0 0 C3.70649314 0.63070862 6.14618878 2.27668656 9.1875 4.4375 C10.06792969 5.05496094 10.94835937 5.67242187 11.85546875 6.30859375 C14 8 14 8 15 10 C11.34426939 8.62992438 8.04532353 6.98982135 4.6875 5 C3.80449219 4.484375 2.92148438 3.96875 2.01171875 3.4375 C1.34785156 2.963125 0.68398437 2.48875 0 2 C0 1.34 0 0.68 0 0 Z " fill="#A1A3A7" transform="translate(223,112)"/>
<path d="M0 0 C8.58 0 17.16 0 26 0 C26 0.33 26 0.66 26 1 C18.74 1 11.48 1 4 1 C3.67 1.99 3.34 2.98 3 4 C2.01 2.68 1.02 1.36 0 0 Z " fill="#E5150A" transform="translate(239,0)"/>
<path d="M0 0 C1.75471386 0.90761062 3.50359264 1.82650711 5.25 2.75 C6.22453125 3.26046875 7.1990625 3.7709375 8.203125 4.296875 C10.91493199 5.94819881 12.86796403 7.66491299 15 10 C8.98261245 8.74637759 4.47361205 6.27607593 0 2 C0 1.34 0 0.68 0 0 Z " fill="#A5484A" transform="translate(115,276)"/>
<path d="M0 0 C3.21524305 1.40844718 5.32183868 3.10344786 7.75 5.625 C8.67039062 6.57246094 8.67039062 6.57246094 9.609375 7.5390625 C10.29773438 8.26222656 10.29773438 8.26222656 11 9 C10.34 9.66 9.68 10.32 9 11 C7.49403892 9.54782324 5.99537896 8.08807139 4.5 6.625 C3.6646875 5.81289062 2.829375 5.00078125 1.96875 4.1640625 C0 2 0 2 0 0 Z " fill="#EB4D56" transform="translate(69,102)"/>
<path d="M0 0 C3.21043882 1.38188453 5.04936365 2.92421903 7.25 5.625 C8.03117187 6.57246094 8.03117187 6.57246094 8.828125 7.5390625 C9.40820312 8.26222656 9.40820312 8.26222656 10 9 C7 9 7 9 5.17578125 7.5390625 C4.56089844 6.90742187 3.94601563 6.27578125 3.3125 5.625 C2.68988281 4.99851562 2.06726562 4.37203125 1.42578125 3.7265625 C0 2 0 2 0 0 Z " fill="#EB4D56" transform="translate(58,91)"/>
<path d="M0 0 C3.74986874 1.24995625 4.62163516 2.90091854 7 6 C8.31494512 7.35147138 9.64264858 8.69112542 11 10 C7.43235179 9.42380903 5.74840503 8.13030516 3.25 5.5625 C2.63640625 4.94503906 2.0228125 4.32757813 1.390625 3.69140625 C0 2 0 2 0 0 Z " fill="#E41815" transform="translate(97,260)"/>
<path d="M0 0 C4.41889613 1.35021826 6.34345343 3.26115668 9 7 C6 7 6 7 4.39453125 5.46875 C3.87246094 4.8190625 3.35039063 4.169375 2.8125 3.5 C2.28269531 2.8503125 1.75289062 2.200625 1.20703125 1.53125 C0.80871094 1.0259375 0.41039062 0.520625 0 0 Z " fill="#EB4E57" transform="translate(47,81)"/>
<path d="M0 0 C1.14926266 0.95421808 2.29430541 1.91352045 3.4375 2.875 C4.07558594 3.40867188 4.71367187 3.94234375 5.37109375 4.4921875 C7 6 7 6 8 8 C7.4225 7.690625 6.845 7.38125 6.25 7.0625 C4.15705816 6.07416636 2.25464725 5.4831387 0 5 C0 3.35 0 1.7 0 0 Z " fill="#A77E83" transform="translate(298,196)"/>
</svg>
